G04 ================== begin FILE IDENTIFICATION RECORD ==================*
G04 Layout Name:  ESP8266SW.brd*
G04 Film Name:    BOTTOM*
G04 File Format:  Gerber RS274X*
G04 File Origin:  Cadence Allegro 16.6-P004*
G04 Origin Date:  Tue Dec 05 23:45:08 2017*
G04 *
G04 Layer:  VIA CLASS/BOTTOM*
G04 Layer:  PIN/BOTTOM*
G04 Layer:  ETCH/BOTTOM*
G04 *
G04 Offset:    (0.0 0.0)*
G04 Mirror:    No*
G04 Mode:      Positive*
G04 Rotation:  0*
G04 FullContactRelief:  No*
G04 UndefLineWidth:     1.0*
G04 ================== end FILE IDENTIFICATION RECORD ====================*
%FSLAX25Y25*MOIN*%
%IR0*IPPOS*OFA0.00000B0.00000*MIA0B0*SFA1.00000B1.00000*%
%ADD12C,.102*%
%ADD10C,.12*%
%ADD15C,.024*%
%ADD11C,.09*%
%ADD13C,.0669*%
%ADD14R,.0669X.0669*%
%ADD16C,.001*%
%ADD17C,.006*%
%ADD18C,.02*%
%ADD22C,.1304*%
%ADD19C,.1124*%
%ADD20C,.0772*%
%ADD21R,.0292X.0465*%
%ADD23R,.0772X.0772*%
G75*
%LPD*%
G75*
G36*
G01X1000Y30000D02*
Y42500D01*
X9500D01*
X11500Y44500D01*
X21000D01*
X22500Y43000D01*
X63500D01*
X78000Y57000D01*
Y154000D01*
X113000D01*
Y1000D01*
X30500D01*
Y30000D01*
X1000D01*
G37*
G36*
G01X75500Y58000D02*
X62500Y45500D01*
X1000D01*
Y108000D01*
X9000D01*
X10500Y109500D01*
X20000D01*
X21500Y108000D01*
X34000D01*
X49500Y92500D01*
X75500D01*
Y58000D01*
G37*
G36*
G01Y154000D02*
Y95000D01*
X50500D01*
X35000Y110500D01*
X1000D01*
Y125000D01*
X30000D01*
Y154000D01*
X75500D01*
G37*
G36*
G01X147000Y1000D02*
Y154000D01*
X232000D01*
Y116000D01*
X236000Y112000D01*
X308000D01*
Y154000D01*
X359000D01*
Y1000D01*
X147000D01*
G37*
%LPC*%
G75*
G36*
G01X326590Y132540D02*
G02X328410I910J1460D01*
G01Y107460D01*
G02X326590I-910J-1460D01*
G01Y132540D01*
G37*
G36*
G01X331090Y99460D02*
Y133620D01*
X328590Y136120D01*
Y140080D01*
G03X328400Y140280I-199J1D01*
G02X330200Y141710I102J1719D01*
G01X330180Y141610D01*
X330410Y141380D01*
Y136880D01*
X332910Y134380D01*
Y99460D01*
G02X331090I-910J-1460D01*
G37*
G36*
G01X224710Y113300D02*
X224610Y113320D01*
X220010Y108720D01*
Y90360D01*
G02X218190I-910J-1460D01*
G01Y109480D01*
X223320Y114610D01*
X223300Y114710D01*
G02X224710Y113300I1700J290D01*
G37*
G36*
G01X253290Y87700D02*
X253390Y87680D01*
X261320Y95610D01*
X261300Y95710D01*
G02X262710Y94300I1700J290D01*
G01X262610Y94320D01*
X254680Y86390D01*
X254700Y86290D01*
G02X253290Y87700I-1700J-290D01*
G37*
G36*
G01X309290Y85700D02*
X309390Y85680D01*
X309670Y85960D01*
Y106960D01*
X310320Y107610D01*
X310300Y107710D01*
G02X311910Y106280I1698J290D01*
G03X311490Y105880I-21J-399D01*
G01Y85200D01*
X310680Y84390D01*
X310700Y84290D01*
G02X309290Y85700I-1700J-290D01*
G37*
G36*
G01X231910Y108540D02*
Y77460D01*
G02X230090I-910J-1460D01*
G01Y108540D01*
G02X231910I910J1460D01*
G37*
G36*
G01X312740Y79870D02*
Y69290D01*
G02X310920I-910J-1460D01*
G01Y81210D01*
X311330Y81620D01*
X311310Y81720D01*
G02X313120Y80270I1701J268D01*
G03X312740Y79870I19J-398D01*
G37*
G36*
G01X311090Y41460D02*
Y61620D01*
X307800Y64910D01*
Y74250D01*
G02X309620I910J1460D01*
G01Y65670D01*
X312910Y62380D01*
Y41460D01*
G02X311090I-910J-1460D01*
G37*
G36*
G01X288910Y97540D02*
Y38460D01*
G02X287090I-910J-1460D01*
G01Y97540D01*
G02X288910I910J1460D01*
G37*
G36*
G01X293910Y105540D02*
Y36460D01*
G02X292090I-910J-1460D01*
G01Y105540D01*
G02X293910I910J1460D01*
G37*
G36*
G01X258860Y23860D02*
Y16140D01*
X251140D01*
Y23860D01*
X253390D01*
Y51400D01*
X253380Y51430D01*
G02X256620I1620J570D01*
G01X256610Y51400D01*
Y23860D01*
X258860D01*
G37*
G36*
G01X265740Y66370D02*
Y23790D01*
X265890Y23760D01*
G02X263920Y23710I-890J-3759D01*
G01Y66370D01*
G02X265740I910J1460D01*
G37*
G36*
G01X309870Y58500D02*
Y17500D01*
G02X308050I-910J-1460D01*
G01Y58500D01*
G02X309870I910J1460D01*
G37*
G36*
G01X214610Y66400D02*
Y30670D01*
X223610Y21670D01*
Y19860D01*
X225860D01*
Y12140D01*
X218140D01*
Y19860D01*
X220390D01*
Y20330D01*
X211390Y29330D01*
Y66400D01*
X211380Y66430D01*
G02X214620I1620J570D01*
G01X214610Y66400D01*
G37*
G54D22*
X345000Y15000D03*
Y140000D03*
G54D19*
X155120Y115000D03*
X165750Y14690D03*
Y75310D03*
X185040Y115000D03*
G54D20*
X212000Y16000D03*
X202000D03*
X192000D03*
X285000Y20000D03*
X275000D03*
X342000Y92000D03*
Y82000D03*
Y102000D03*
G54D21*
X181840Y54665D03*
X195620Y47575D03*
X209400Y55055D03*
G54D23*
X342000Y112000D03*
%LPD*%
G75*
G54D10*
X15000Y15000D03*
Y140000D03*
X345000Y15000D03*
Y140000D03*
G54D11*
X15000Y40000D03*
Y50000D03*
Y105000D03*
Y115000D03*
G54D12*
X50000Y35160D03*
Y54840D03*
X64960Y115000D03*
X105120D03*
X155120D03*
X165750Y14690D03*
Y75310D03*
X185040Y115000D03*
G54D13*
X212000Y16000D03*
X202000D03*
X192000D03*
X265000Y20000D03*
X285000D03*
X275000D03*
X342000Y92000D03*
Y82000D03*
Y102000D03*
G54D14*
X222000Y16000D03*
X255000Y20000D03*
X342000Y112000D03*
G54D15*
X213000Y67000D03*
X231000Y76000D03*
X219100Y88900D03*
X231000Y110000D03*
X225000Y115000D03*
X255000Y52000D03*
X253000Y86000D03*
X264830Y67830D03*
X263000Y96000D03*
X293000Y35000D03*
X288000Y37000D03*
X293000Y107000D03*
X288000Y99000D03*
X308960Y16040D03*
Y59960D03*
X312000Y40000D03*
X313010Y81990D03*
X311830Y67830D03*
X308710Y75710D03*
X309000Y84000D03*
X327500Y106000D03*
X312000Y108000D03*
X328500Y142000D03*
X327500Y134000D03*
X332000Y98000D03*
G54D16*
G01X209080Y56720D02*
X209720D01*
G01X209400D02*
Y54220D01*
G01X209080D02*
X209720D01*
G01X195620Y46740D02*
X195410Y46780D01*
X195220Y46950D01*
X195060Y47200D01*
X194950Y47490D01*
X194900Y47820D01*
Y48160D01*
X194950Y48490D01*
X195060Y48780D01*
X195220Y49030D01*
X195410Y49200D01*
X195620Y49240D01*
X195830Y49200D01*
X196020Y49030D01*
X196180Y48780D01*
X196290Y48490D01*
X196340Y48160D01*
Y47820D01*
X196290Y47490D01*
X196180Y47200D01*
X196020Y46950D01*
X195830Y46780D01*
X195620Y46740D01*
G01X182000Y55080D02*
X182530D01*
Y54330D01*
X182370Y54080D01*
X182190Y53910D01*
X181920Y53830D01*
X181650Y53910D01*
X181470Y54080D01*
X181310Y54330D01*
X181200Y54620D01*
X181150Y54950D01*
Y55250D01*
X181200Y55500D01*
X181310Y55790D01*
X181470Y56040D01*
X181630Y56200D01*
X181840Y56330D01*
X182030D01*
X182240Y56250D01*
X182400Y56080D01*
G54D17*
G01X165750Y69500D02*
Y75310D01*
G01D02*
Y81120D01*
G01X159940Y75310D02*
X165750D01*
G01D02*
X171560D01*
G01X192000Y11940D02*
Y16000D01*
G01D02*
Y20060D01*
G01X187940Y16000D02*
X192000D01*
G01D02*
X196060D01*
G01X231000Y76000D02*
Y110000D01*
G01X219100Y88900D02*
Y109100D01*
X225000Y115000D01*
G01X264830Y67830D02*
Y20170D01*
X265000Y20000D01*
G01X253000Y86000D02*
X263000Y96000D01*
G01X285000Y15940D02*
Y20000D01*
G01D02*
Y24060D01*
G01X280940Y20000D02*
X285000D01*
G01D02*
X289060D01*
G01X293000Y35000D02*
Y107000D01*
G01X288000Y37000D02*
Y99000D01*
G01X308960Y59960D02*
Y16040D01*
G01X312000Y40000D02*
Y62000D01*
X308710Y65290D01*
Y75710D01*
G01X311830Y67830D02*
Y80830D01*
X312990Y81990D01*
X313010D01*
G01X309000Y84000D02*
X310580Y85580D01*
Y106580D01*
X312000Y108000D01*
G01X327500Y134000D02*
Y106000D01*
G01X328500Y142000D02*
X329500Y141000D01*
Y136500D01*
X332000Y134000D01*
Y98000D01*
G01X342000Y77940D02*
Y82000D01*
G01D02*
Y86060D01*
G01X337940Y82000D02*
X342000D01*
G01D02*
X346060D01*
G54D18*
G01X222000Y16000D02*
Y21000D01*
X213000Y30000D01*
Y67000D01*
G01X255000Y52000D02*
Y20000D01*
M02*
