G04 ================== begin FILE IDENTIFICATION RECORD ==================*
G04 Layout Name:  ESP8266SW.brd*
G04 Film Name:    DRILL*
G04 File Format:  Gerber RS274X*
G04 File Origin:  Cadence Allegro 16.6-P004*
G04 Origin Date:  Tue Dec 05 23:45:08 2017*
G04 *
G04 Layer:  MANUFACTURING/NCDRILL_LEGEND*
G04 Layer:  MANUFACTURING/NCDRILL_FIGURE*
G04 Layer:  MANUFACTURING/NCLEGEND-1-2*
G04 Layer:  BOARD GEOMETRY/OUTLINE*
G04 *
G04 Offset:    (0.0 0.0)*
G04 Mirror:    No*
G04 Mode:      Positive*
G04 Rotation:  0*
G04 FullContactRelief:  No*
G04 UndefLineWidth:     1.0*
G04 ================== end FILE IDENTIFICATION RECORD ====================*
%FSLAX25Y25*MOIN*%
%IR0*IPPOS*OFA0.00000B0.00000*MIA0B0*SFA1.00000B1.00000*%
%AMMACRO13*
1,1,.001,.025,0.0*
20,1,.001,.025,0.0,0.0,-.025,0.0*
1,1,.001,0.0,-.025*
20,1,.001,0.0,-.025,-.025,0.0,0.0*
1,1,.001,-.025,0.0*
20,1,.001,-.025,0.0,0.0,.025,0.0*
1,1,.001,0.0,.025*
20,1,.001,0.0,.025,.025,0.0,0.0*
1,1,.001,.025,0.0*
%
%ADD13MACRO13*%
%AMMACRO11*
1,1,.001,.0375,.0375*
20,1,.001,.0375,.0375,.0375,-.0375,0.0*
1,1,.001,.0375,-.0375*
20,1,.001,.0375,-.0375,-.0375,-.0375,0.0*
1,1,.001,-.0375,-.0375*
20,1,.001,-.0375,-.0375,-.0375,.0375,0.0*
1,1,.001,-.0375,.0375*
20,1,.001,-.0375,.0375,.0375,.0375,0.0*
1,1,.001,.0375,.0375*
1,1,.001,-.0118,.0126*
20,1,.001,-.0118,.0126,-.0081,.0163,0.0*
1,1,.001,-.0081,.0163*
20,1,.001,-.0081,.0163,-.0037,.0182,0.0*
1,1,.001,-.0037,.0182*
20,1,.001,-.0037,.0182,.0013,.0188,0.0*
1,1,.001,.0013,.0188*
20,1,.001,.0013,.0188,.0076,.0176,0.0*
1,1,.001,.0076,.0176*
20,1,.001,.0076,.0176,.0119,.0144,0.0*
1,1,.001,.0119,.0144*
20,1,.001,.0119,.0144,.0132,.0107,0.0*
1,1,.001,.0132,.0107*
20,1,.001,.0132,.0107,.0126,.0069,0.0*
1,1,.001,.0126,.0069*
20,1,.001,.0126,.0069,.01,.0038,0.0*
1,1,.001,.01,.0038*
20,1,.001,.01,.0038,-.0025,-.0025,0.0*
1,1,.001,-.0025,-.0025*
20,1,.001,-.0025,-.0025,-.0081,-.0068,0.0*
1,1,.001,-.0081,-.0068*
20,1,.001,-.0081,-.0068,-.0118,-.0131,0.0*
1,1,.001,-.0118,-.0131*
20,1,.001,-.0118,-.0131,-.0131,-.0187,0.0*
1,1,.001,-.0131,-.0187*
20,1,.001,-.0131,-.0187,.0132,-.0187,0.0*
1,1,.001,.0132,-.0187*
%
%ADD11MACRO11*%
%AMMACRO12*
1,1,.001,.0336,0.0*
20,1,.001,.0336,0.0,0.0,-.0336,0.0*
1,1,.001,0.0,-.0336*
20,1,.001,0.0,-.0336,-.0336,0.0,0.0*
1,1,.001,-.0336,0.0*
20,1,.001,-.0336,0.0,0.0,.0336,0.0*
1,1,.001,0.0,.0336*
20,1,.001,0.0,.0336,.0336,0.0,0.0*
1,1,.001,.0336,0.0*
1,1,.001,-.0106,.0112*
20,1,.001,-.0106,.0112,-.0073,.0146,0.0*
1,1,.001,-.0073,.0146*
20,1,.001,-.0073,.0146,-.0034,.0162,0.0*
1,1,.001,-.0034,.0162*
20,1,.001,-.0034,.0162,.0011,.0168,0.0*
1,1,.001,.0011,.0168*
20,1,.001,.0011,.0168,.0067,.0157,0.0*
1,1,.001,.0067,.0157*
20,1,.001,.0067,.0157,.0106,.0129,0.0*
1,1,.001,.0106,.0129*
20,1,.001,.0106,.0129,.0118,.0095,0.0*
1,1,.001,.0118,.0095*
20,1,.001,.0118,.0095,.0112,.0062,0.0*
1,1,.001,.0112,.0062*
20,1,.001,.0112,.0062,.009,.0034,0.0*
1,1,.001,.009,.0034*
20,1,.001,.009,.0034,-.0022,-.0022,0.0*
1,1,.001,-.0022,-.0022*
20,1,.001,-.0022,-.0022,-.0073,-.0062,0.0*
1,1,.001,-.0073,-.0062*
20,1,.001,-.0073,-.0062,-.0106,-.0118,0.0*
1,1,.001,-.0106,-.0118*
20,1,.001,-.0106,-.0118,-.0118,-.0168,0.0*
1,1,.001,-.0118,-.0168*
20,1,.001,-.0118,-.0168,.0118,-.0168,0.0*
1,1,.001,.0118,-.0168*
%
%ADD12MACRO12*%
%AMMACRO10*
1,1,.001,0.0,.059*
20,1,.001,0.0,.059,.059,-.059,0.0*
1,1,.001,.059,-.059*
20,1,.001,.059,-.059,-.059,-.059,0.0*
1,1,.001,-.059,-.059*
20,1,.001,-.059,-.059,0.0,.059,0.0*
1,1,.001,0.0,.059*
1,1,.001,-.0187,.0197*
20,1,.001,-.0187,.0197,-.0128,.0256,0.0*
1,1,.001,-.0128,.0256*
20,1,.001,-.0128,.0256,-.0059,.0285,0.0*
1,1,.001,-.0059,.0285*
20,1,.001,-.0059,.0285,.002,.0295,0.0*
1,1,.001,.002,.0295*
20,1,.001,.002,.0295,.0118,.0275,0.0*
1,1,.001,.0118,.0275*
20,1,.001,.0118,.0275,.0187,.0226,0.0*
1,1,.001,.0187,.0226*
20,1,.001,.0187,.0226,.0207,.0167,0.0*
1,1,.001,.0207,.0167*
20,1,.001,.0207,.0167,.0197,.0108,0.0*
1,1,.001,.0197,.0108*
20,1,.001,.0197,.0108,.0157,.0059,0.0*
1,1,.001,.0157,.0059*
20,1,.001,.0157,.0059,-.0039,-.0039,0.0*
1,1,.001,-.0039,-.0039*
20,1,.001,-.0039,-.0039,-.0128,-.0108,0.0*
1,1,.001,-.0128,-.0108*
20,1,.001,-.0128,-.0108,-.0187,-.0207,0.0*
1,1,.001,-.0187,-.0207*
20,1,.001,-.0187,-.0207,-.0207,-.0295,0.0*
1,1,.001,-.0207,-.0295*
20,1,.001,-.0207,-.0295,.0207,-.0295,0.0*
1,1,.001,.0207,-.0295*
%
%ADD10MACRO10*%
%ADD14C,.001*%
G75*
%LPD*%
G75*
G54D10*
X15000Y15000D03*
Y140000D03*
X42950Y184350D03*
X345000Y15000D03*
Y140000D03*
G54D11*
X15000Y40000D03*
Y50000D03*
Y105000D03*
Y115000D03*
X50000Y35160D03*
Y54840D03*
X64960Y115000D03*
X42950Y212450D03*
Y240550D03*
X105120Y115000D03*
X155120D03*
X165750Y14690D03*
Y75310D03*
X185040Y115000D03*
G54D12*
X42950Y268650D03*
X212000Y16000D03*
X202000D03*
X192000D03*
X222000D03*
X265000Y20000D03*
X255000D03*
X285000D03*
X275000D03*
X342000Y92000D03*
Y82000D03*
Y112000D03*
Y102000D03*
G54D13*
X42950Y296750D03*
X213000Y67000D03*
X231000Y76000D03*
X219100Y88900D03*
X231000Y110000D03*
X225000Y115000D03*
X255000Y52000D03*
X253000Y86000D03*
X264830Y67830D03*
X263000Y96000D03*
X293000Y35000D03*
X288000Y37000D03*
X293000Y107000D03*
X288000Y99000D03*
X308960Y16040D03*
Y59960D03*
X312000Y40000D03*
X313010Y81990D03*
X311830Y67830D03*
X308710Y75710D03*
X309000Y84000D03*
X327500Y106000D03*
X312000Y108000D03*
X328500Y142000D03*
X327500Y134000D03*
X332000Y98000D03*
G54D14*
G01X-2000Y170300D02*
Y392000D01*
X670700D01*
Y170300D01*
X-2000D01*
G01Y198400D02*
X670700D01*
G01X-2000Y226500D02*
X670700D01*
G01X-2000Y254600D02*
X670700D01*
G01X-2000Y282700D02*
X670700D01*
G01X-2000Y310800D02*
X670700D01*
G01X-2000Y338900D02*
X670700D01*
G01X-2000Y367000D02*
X670700D01*
G01X0Y0D02*
X360000D01*
Y155000D01*
X0D01*
Y0D01*
G01X9000Y320150D02*
Y332650D01*
X14900D01*
G01X12720Y326610D02*
X9000D01*
G01X22490Y332650D02*
X26210D01*
G01X24350D02*
Y320150D01*
G01X22490D02*
X26210D01*
G01X37680Y326400D02*
X40780D01*
Y322650D01*
X39850Y321400D01*
X38760Y320570D01*
X37220Y320150D01*
X35670Y320570D01*
X34580Y321400D01*
X33650Y322650D01*
X33030Y324110D01*
X32720Y325770D01*
Y327230D01*
X33030Y328480D01*
X33650Y329940D01*
X34580Y331190D01*
X35510Y332020D01*
X36750Y332650D01*
X37830D01*
X39070Y332230D01*
X40010Y331400D01*
G01X45740Y332650D02*
Y323690D01*
X46360Y321820D01*
X47600Y320570D01*
X49150Y320150D01*
X50700Y320570D01*
X51940Y321820D01*
X52560Y323690D01*
Y332650D01*
G01X58450Y320150D02*
Y332650D01*
X62320D01*
X63560Y332020D01*
X64340Y331190D01*
X64650Y329520D01*
X64340Y327860D01*
X63410Y326820D01*
X62320Y326190D01*
X58450D01*
G01X62320D02*
X64650Y320150D01*
G01X77050D02*
X70850D01*
Y332650D01*
X77050D01*
G01X74570Y326610D02*
X70850D01*
G01X87900Y338900D02*
Y170300D01*
G01X161210Y179560D02*
X162300Y178520D01*
X163540Y178100D01*
X164780Y178520D01*
X165860Y179770D01*
X166640Y181640D01*
X166950Y183520D01*
Y185810D01*
X166640Y187680D01*
X165860Y189350D01*
X164930Y190180D01*
X163850Y190600D01*
X162610Y190180D01*
X161680Y189350D01*
X161060Y188100D01*
X160750Y186430D01*
X161060Y184980D01*
X161840Y183520D01*
X162770Y182680D01*
X163850Y182470D01*
X165090Y182890D01*
X166020Y183930D01*
X166950Y185810D01*
G01X176250Y178100D02*
X177330Y178310D01*
X178570Y178930D01*
X179350Y179970D01*
X179660Y181430D01*
X179350Y182890D01*
X178420Y184140D01*
X177020Y184770D01*
X175480D01*
X174540Y185180D01*
X173770Y186220D01*
X173460Y187680D01*
X173930Y189140D01*
X175010Y190180D01*
X176250Y190600D01*
X177490Y190180D01*
X178570Y189140D01*
X179040Y187680D01*
X178730Y186220D01*
X177960Y185180D01*
X177020Y184770D01*
X175480D01*
X174080Y184140D01*
X173150Y182890D01*
X172840Y181430D01*
X173150Y179970D01*
X173930Y178930D01*
X175170Y178310D01*
X176250Y178100D01*
G01X188650Y177680D02*
X188340Y177890D01*
Y178310D01*
X188650Y178520D01*
X188960Y178310D01*
Y177890D01*
X188650Y177680D01*
G01X201050Y190600D02*
X199810Y190180D01*
X198880Y189140D01*
X198260Y187890D01*
X197790Y186220D01*
X197640Y184350D01*
X197790Y182470D01*
X198260Y180810D01*
X198880Y179560D01*
X199810Y178520D01*
X201050Y178100D01*
X202290Y178520D01*
X203220Y179560D01*
X203840Y180810D01*
X204310Y182470D01*
X204460Y184350D01*
X204310Y186220D01*
X203840Y187890D01*
X203220Y189140D01*
X202290Y190180D01*
X201050Y190600D01*
G01X160900Y211410D02*
X161990Y212870D01*
X162920Y213700D01*
X164160Y214120D01*
X165250Y213700D01*
X166020Y212870D01*
X166640Y211620D01*
X166800Y210160D01*
X166640Y208910D01*
X166020Y207660D01*
X165090Y206620D01*
X164010Y206200D01*
X162770Y206620D01*
X161680Y207870D01*
X161060Y209740D01*
X160900Y211820D01*
X161210Y214530D01*
X161680Y215990D01*
X162450Y217450D01*
X163540Y218490D01*
X164620Y218700D01*
X165710Y218280D01*
X166490Y217240D01*
G01X176250Y218700D02*
X175010Y218280D01*
X174080Y217240D01*
X173460Y215990D01*
X172990Y214320D01*
X172840Y212450D01*
X172990Y210570D01*
X173460Y208910D01*
X174080Y207660D01*
X175010Y206620D01*
X176250Y206200D01*
X177490Y206620D01*
X178420Y207660D01*
X179040Y208910D01*
X179510Y210570D01*
X179660Y212450D01*
X179510Y214320D01*
X179040Y215990D01*
X178420Y217240D01*
X177490Y218280D01*
X176250Y218700D01*
G01X188650Y205780D02*
X188340Y205990D01*
Y206410D01*
X188650Y206620D01*
X188960Y206410D01*
Y205990D01*
X188650Y205780D01*
G01X201050Y218700D02*
X199810Y218280D01*
X198880Y217240D01*
X198260Y215990D01*
X197790Y214320D01*
X197640Y212450D01*
X197790Y210570D01*
X198260Y208910D01*
X198880Y207660D01*
X199810Y206620D01*
X201050Y206200D01*
X202290Y206620D01*
X203220Y207660D01*
X203840Y208910D01*
X204310Y210570D01*
X204460Y212450D01*
X204310Y214320D01*
X203840Y215990D01*
X203220Y217240D01*
X202290Y218280D01*
X201050Y218700D01*
G01X160440Y236170D02*
X161370Y235130D01*
X162450Y234510D01*
X163850Y234300D01*
X165250Y234720D01*
X166330Y235550D01*
X167110Y237010D01*
X167260Y238670D01*
X166950Y240340D01*
X166170Y241380D01*
X165090Y242220D01*
X164010Y242420D01*
X162920Y242220D01*
X161530Y241380D01*
X161990Y246800D01*
X166170D01*
G01X172840Y236170D02*
X173770Y235130D01*
X174850Y234510D01*
X176250Y234300D01*
X177650Y234720D01*
X178730Y235550D01*
X179510Y237010D01*
X179660Y238670D01*
X179350Y240340D01*
X178570Y241380D01*
X177490Y242220D01*
X176410Y242420D01*
X175320Y242220D01*
X173930Y241380D01*
X174390Y246800D01*
X178570D01*
G01X188650Y233880D02*
X188340Y234090D01*
Y234510D01*
X188650Y234720D01*
X188960Y234510D01*
Y234090D01*
X188650Y233880D01*
G01X201050Y246800D02*
X199810Y246380D01*
X198880Y245340D01*
X198260Y244090D01*
X197790Y242420D01*
X197640Y240550D01*
X197790Y238670D01*
X198260Y237010D01*
X198880Y235760D01*
X199810Y234720D01*
X201050Y234300D01*
X202290Y234720D01*
X203220Y235760D01*
X203840Y237010D01*
X204310Y238670D01*
X204460Y240550D01*
X204310Y242420D01*
X203840Y244090D01*
X203220Y245340D01*
X202290Y246380D01*
X201050Y246800D01*
G01X165710Y262400D02*
Y274900D01*
X159970Y265940D01*
X167730D01*
G01X175940Y262400D02*
X176250Y265110D01*
X176720Y267400D01*
X177330Y269480D01*
X178110Y271770D01*
X179350Y274900D01*
X173150D01*
G01X188650Y261980D02*
X188340Y262190D01*
Y262610D01*
X188650Y262820D01*
X188960Y262610D01*
Y262190D01*
X188650Y261980D01*
G01X198100Y272820D02*
X199040Y274070D01*
X200120Y274690D01*
X201360Y274900D01*
X202910Y274480D01*
X204000Y273440D01*
X204310Y272190D01*
X204150Y270940D01*
X203530Y269900D01*
X200430Y267820D01*
X199040Y266360D01*
X198100Y264270D01*
X197790Y262400D01*
X204310D01*
G01X163850Y290500D02*
Y303000D01*
X161990Y300500D01*
G01Y290500D02*
X165710D01*
G01X173300Y300920D02*
X174240Y302170D01*
X175320Y302790D01*
X176560Y303000D01*
X178110Y302580D01*
X179200Y301540D01*
X179510Y300290D01*
X179350Y299040D01*
X178730Y298000D01*
X175630Y295920D01*
X174240Y294460D01*
X173300Y292370D01*
X172990Y290500D01*
X179510D01*
G01X188650Y290080D02*
X188340Y290290D01*
Y290710D01*
X188650Y290920D01*
X188960Y290710D01*
Y290290D01*
X188650Y290080D01*
G01X201050Y303000D02*
X199810Y302580D01*
X198880Y301540D01*
X198260Y300290D01*
X197790Y298620D01*
X197640Y296750D01*
X197790Y294870D01*
X198260Y293210D01*
X198880Y291960D01*
X199810Y290920D01*
X201050Y290500D01*
X202290Y290920D01*
X203220Y291960D01*
X203840Y293210D01*
X204310Y294870D01*
X204460Y296750D01*
X204310Y298620D01*
X203840Y300290D01*
X203220Y301540D01*
X202290Y302580D01*
X201050Y303000D01*
G01X160590Y321820D02*
X161840Y320770D01*
X163230Y320150D01*
X164470D01*
X165710Y320770D01*
X166640Y321820D01*
X167110Y323280D01*
X166800Y324730D01*
X166020Y325980D01*
X164620Y326820D01*
X162770Y327230D01*
X161680Y328070D01*
X161210Y329520D01*
X161530Y330980D01*
X162300Y332020D01*
X163380Y332650D01*
X164470D01*
X165560Y332230D01*
X166490Y331190D01*
G01X174390Y332650D02*
X178110D01*
G01X176250D02*
Y320150D01*
G01X174390D02*
X178110D01*
G01X185700Y332650D02*
X191600D01*
X185700Y320150D01*
X191600D01*
G01X204150D02*
X197950D01*
Y332650D01*
X204150D01*
G01X201670Y326610D02*
X197950D01*
G01X175940Y373250D02*
Y385750D01*
X179040D01*
X180280Y385120D01*
X181210Y384290D01*
X181990Y383040D01*
X182610Y381580D01*
X182760Y379500D01*
X182610Y377420D01*
X181990Y375960D01*
X181210Y374710D01*
X180280Y373870D01*
X179040Y373250D01*
X175940D01*
G01X188650D02*
Y385750D01*
X192520D01*
X193760Y385120D01*
X194540Y384290D01*
X194850Y382620D01*
X194540Y380960D01*
X193610Y379920D01*
X192520Y379290D01*
X188650D01*
G01X192520D02*
X194850Y373250D01*
G01X202290Y385750D02*
X206010D01*
G01X204150D02*
Y373250D01*
G01X202290D02*
X206010D01*
G01X213450Y385750D02*
Y373250D01*
X219650D01*
G01X225850Y385750D02*
Y373250D01*
X232050D01*
G01X257160Y384710D02*
X256230Y385330D01*
X255150Y385750D01*
X253910D01*
X252510Y385120D01*
X251430Y384080D01*
X250650Y382830D01*
X250030Y380750D01*
X249870Y378870D01*
X250190Y377000D01*
X250650Y375750D01*
X251580Y374500D01*
X252670Y373670D01*
X253750Y373250D01*
X254830D01*
X255920Y373670D01*
X256850Y374290D01*
X257630Y375120D01*
G01X262890Y373250D02*
Y385750D01*
G01X269410D02*
Y373250D01*
G01Y379500D02*
X262890D01*
G01X274670Y373250D02*
X278550Y385750D01*
X282430Y373250D01*
G01X281030Y377620D02*
X276070D01*
G01X287850Y373250D02*
Y385750D01*
X291720D01*
X292960Y385120D01*
X293740Y384290D01*
X294050Y382620D01*
X293740Y380960D01*
X292810Y379920D01*
X291720Y379290D01*
X287850D01*
G01X291720D02*
X294050Y373250D01*
G01X303350Y385750D02*
Y373250D01*
G01X299790Y385750D02*
X306910D01*
G01X315750Y372830D02*
X315440Y373040D01*
Y373460D01*
X315750Y373670D01*
X316060Y373460D01*
Y373040D01*
X315750Y372830D01*
G01Y378460D02*
X315440Y378670D01*
Y379080D01*
X315750Y379290D01*
X316060Y379080D01*
Y378670D01*
X315750Y378460D01*
G01X340550Y385750D02*
Y373250D01*
G01X336990Y385750D02*
X344110D01*
G01X352950Y373250D02*
X351710Y373460D01*
X350630Y374290D01*
X349690Y375540D01*
X349070Y377000D01*
X348760Y378670D01*
Y380330D01*
X349070Y382000D01*
X349690Y383460D01*
X350630Y384710D01*
X351710Y385540D01*
X352950Y385750D01*
X354190Y385540D01*
X355270Y384710D01*
X356210Y383460D01*
X356830Y382000D01*
X357140Y380330D01*
Y378670D01*
X356830Y377000D01*
X356210Y375540D01*
X355270Y374290D01*
X354190Y373460D01*
X352950Y373250D01*
G01X362250D02*
Y385750D01*
X365970D01*
X367210Y385120D01*
X368140Y383670D01*
X368450Y382000D01*
X368140Y380330D01*
X367360Y379080D01*
X365970Y378460D01*
X362250D01*
G01X390150Y385750D02*
Y373250D01*
G01X387980Y381580D02*
X392320D01*
G01X402550Y373250D02*
X401620Y373460D01*
X400690Y374290D01*
X400070Y375750D01*
X399760Y377420D01*
X400070Y379080D01*
X400690Y380540D01*
X401620Y381370D01*
X402550Y381580D01*
X403480Y381370D01*
X404410Y380540D01*
X405030Y379080D01*
X405190Y377420D01*
X405030Y375750D01*
X404410Y374290D01*
X403480Y373460D01*
X402550Y373250D01*
G01X428590Y379920D02*
X429210Y380540D01*
X429670Y381580D01*
X429990Y383040D01*
X429670Y384290D01*
X429060Y385120D01*
X427970Y385750D01*
X423790D01*
Y373250D01*
X428900D01*
X429990Y374080D01*
X430610Y375330D01*
X430910Y376790D01*
X430610Y378250D01*
X429670Y379500D01*
X428590Y379920D01*
X423790D01*
G01X439750Y373250D02*
X438510Y373460D01*
X437430Y374290D01*
X436490Y375540D01*
X435870Y377000D01*
X435560Y378670D01*
Y380330D01*
X435870Y382000D01*
X436490Y383460D01*
X437430Y384710D01*
X438510Y385540D01*
X439750Y385750D01*
X440990Y385540D01*
X442070Y384710D01*
X443010Y383460D01*
X443630Y382000D01*
X443940Y380330D01*
Y378670D01*
X443630Y377000D01*
X443010Y375540D01*
X442070Y374290D01*
X440990Y373460D01*
X439750Y373250D01*
G01X452150Y385750D02*
Y373250D01*
G01X448590Y385750D02*
X455710D01*
G01X464550D02*
Y373250D01*
G01X460990Y385750D02*
X468110D01*
G01X476950Y373250D02*
X475710Y373460D01*
X474630Y374290D01*
X473690Y375540D01*
X473070Y377000D01*
X472760Y378670D01*
Y380330D01*
X473070Y382000D01*
X473690Y383460D01*
X474630Y384710D01*
X475710Y385540D01*
X476950Y385750D01*
X478190Y385540D01*
X479270Y384710D01*
X480210Y383460D01*
X480830Y382000D01*
X481140Y380330D01*
Y378670D01*
X480830Y377000D01*
X480210Y375540D01*
X479270Y374290D01*
X478190Y373460D01*
X476950Y373250D01*
G01X485320D02*
Y385750D01*
X489350Y375330D01*
X493380Y385750D01*
Y373250D01*
G01X206470Y348250D02*
X210350Y360750D01*
X214230Y348250D01*
G01X212830Y352620D02*
X207870D01*
G01X219650Y360750D02*
Y348250D01*
X225850D01*
G01X232050Y360750D02*
Y348250D01*
X238250D01*
G01X256540Y360750D02*
Y351790D01*
X257160Y349920D01*
X258400Y348670D01*
X259950Y348250D01*
X261500Y348670D01*
X262740Y349920D01*
X263360Y351790D01*
Y360750D01*
G01X268790Y348250D02*
Y360750D01*
X275910Y348250D01*
Y360750D01*
G01X282890D02*
X286610D01*
G01X284750D02*
Y348250D01*
G01X282890D02*
X286610D01*
G01X297150Y360750D02*
Y348250D01*
G01X293590Y360750D02*
X300710D01*
G01X306290Y349920D02*
X307540Y348870D01*
X308930Y348250D01*
X310170D01*
X311410Y348870D01*
X312340Y349920D01*
X312810Y351380D01*
X312500Y352830D01*
X311720Y354080D01*
X310320Y354920D01*
X308470Y355330D01*
X307380Y356170D01*
X306910Y357620D01*
X307230Y359080D01*
X308000Y360120D01*
X309080Y360750D01*
X310170D01*
X311260Y360330D01*
X312190Y359290D01*
G01X330470Y348250D02*
X334350Y360750D01*
X338230Y348250D01*
G01X336830Y352620D02*
X331870D01*
G01X343650Y348250D02*
Y360750D01*
X347520D01*
X348760Y360120D01*
X349540Y359290D01*
X349850Y357620D01*
X349540Y355960D01*
X348610Y354920D01*
X347520Y354290D01*
X343650D01*
G01X347520D02*
X349850Y348250D01*
G01X362250D02*
X356050D01*
Y360750D01*
X362250D01*
G01X359770Y354710D02*
X356050D01*
G01X382090Y360750D02*
X385810D01*
G01X383950D02*
Y348250D01*
G01X382090D02*
X385810D01*
G01X392790D02*
Y360750D01*
X399910Y348250D01*
Y360750D01*
G01X417120Y348250D02*
Y360750D01*
X421150Y350330D01*
X425180Y360750D01*
Y348250D01*
G01X431690Y360750D02*
X435410D01*
G01X433550D02*
Y348250D01*
G01X431690D02*
X435410D01*
G01X442850Y360750D02*
Y348250D01*
X449050D01*
G01X455090Y349920D02*
X456340Y348870D01*
X457730Y348250D01*
X458970D01*
X460210Y348870D01*
X461140Y349920D01*
X461610Y351380D01*
X461300Y352830D01*
X460520Y354080D01*
X459120Y354920D01*
X457270Y355330D01*
X456180Y356170D01*
X455710Y357620D01*
X456030Y359080D01*
X456800Y360120D01*
X457880Y360750D01*
X458970D01*
X460060Y360330D01*
X460990Y359290D01*
G01X277000Y338900D02*
Y170300D01*
G01X320240Y182270D02*
X323960D01*
G01X321950Y184980D02*
Y179560D01*
G01X330940Y180600D02*
X331870Y179140D01*
X333110Y178310D01*
X334510Y178100D01*
X335750Y178310D01*
X336990Y179350D01*
X337760Y180600D01*
X337910Y181850D01*
X337610Y183310D01*
X336520Y184350D01*
X335430Y184770D01*
X334040D01*
G01X335430D02*
X336360Y185390D01*
X337140Y186430D01*
X337450Y187680D01*
X337140Y188930D01*
X336360Y189970D01*
X334970Y190600D01*
X333580Y190390D01*
X332180Y189560D01*
G01X346750Y177680D02*
X346440Y177890D01*
Y178310D01*
X346750Y178520D01*
X347060Y178310D01*
Y177890D01*
X346750Y177680D01*
G01X359150Y190600D02*
X357910Y190180D01*
X356980Y189140D01*
X356360Y187890D01*
X355890Y186220D01*
X355740Y184350D01*
X355890Y182470D01*
X356360Y180810D01*
X356980Y179560D01*
X357910Y178520D01*
X359150Y178100D01*
X360390Y178520D01*
X361320Y179560D01*
X361940Y180810D01*
X362410Y182470D01*
X362560Y184350D01*
X362410Y186220D01*
X361940Y187890D01*
X361320Y189140D01*
X360390Y190180D01*
X359150Y190600D01*
G01X368760Y177680D02*
X374340Y190600D01*
G01X381940Y182270D02*
X385960D01*
G01X392940Y180600D02*
X393870Y179140D01*
X395110Y178310D01*
X396510Y178100D01*
X397750Y178310D01*
X398990Y179350D01*
X399760Y180600D01*
X399910Y181850D01*
X399610Y183310D01*
X398520Y184350D01*
X397430Y184770D01*
X396040D01*
G01X397430D02*
X398360Y185390D01*
X399140Y186430D01*
X399450Y187680D01*
X399140Y188930D01*
X398360Y189970D01*
X396970Y190600D01*
X395580Y190390D01*
X394180Y189560D01*
G01X408750Y177680D02*
X408440Y177890D01*
Y178310D01*
X408750Y178520D01*
X409060Y178310D01*
Y177890D01*
X408750Y177680D01*
G01X421150Y190600D02*
X419910Y190180D01*
X418980Y189140D01*
X418360Y187890D01*
X417890Y186220D01*
X417740Y184350D01*
X417890Y182470D01*
X418360Y180810D01*
X418980Y179560D01*
X419910Y178520D01*
X421150Y178100D01*
X422390Y178520D01*
X423320Y179560D01*
X423940Y180810D01*
X424410Y182470D01*
X424560Y184350D01*
X424410Y186220D01*
X423940Y187890D01*
X423320Y189140D01*
X422390Y190180D01*
X421150Y190600D01*
G01X320240Y210370D02*
X323960D01*
G01X321950Y213080D02*
Y207660D01*
G01X330940Y208700D02*
X331870Y207240D01*
X333110Y206410D01*
X334510Y206200D01*
X335750Y206410D01*
X336990Y207450D01*
X337760Y208700D01*
X337910Y209950D01*
X337610Y211410D01*
X336520Y212450D01*
X335430Y212870D01*
X334040D01*
G01X335430D02*
X336360Y213490D01*
X337140Y214530D01*
X337450Y215780D01*
X337140Y217030D01*
X336360Y218070D01*
X334970Y218700D01*
X333580Y218490D01*
X332180Y217660D01*
G01X346750Y205780D02*
X346440Y205990D01*
Y206410D01*
X346750Y206620D01*
X347060Y206410D01*
Y205990D01*
X346750Y205780D01*
G01X359150Y218700D02*
X357910Y218280D01*
X356980Y217240D01*
X356360Y215990D01*
X355890Y214320D01*
X355740Y212450D01*
X355890Y210570D01*
X356360Y208910D01*
X356980Y207660D01*
X357910Y206620D01*
X359150Y206200D01*
X360390Y206620D01*
X361320Y207660D01*
X361940Y208910D01*
X362410Y210570D01*
X362560Y212450D01*
X362410Y214320D01*
X361940Y215990D01*
X361320Y217240D01*
X360390Y218280D01*
X359150Y218700D01*
G01X368760Y205780D02*
X374340Y218700D01*
G01X381940Y210370D02*
X385960D01*
G01X392940Y208700D02*
X393870Y207240D01*
X395110Y206410D01*
X396510Y206200D01*
X397750Y206410D01*
X398990Y207450D01*
X399760Y208700D01*
X399910Y209950D01*
X399610Y211410D01*
X398520Y212450D01*
X397430Y212870D01*
X396040D01*
G01X397430D02*
X398360Y213490D01*
X399140Y214530D01*
X399450Y215780D01*
X399140Y217030D01*
X398360Y218070D01*
X396970Y218700D01*
X395580Y218490D01*
X394180Y217660D01*
G01X408750Y205780D02*
X408440Y205990D01*
Y206410D01*
X408750Y206620D01*
X409060Y206410D01*
Y205990D01*
X408750Y205780D01*
G01X421150Y218700D02*
X419910Y218280D01*
X418980Y217240D01*
X418360Y215990D01*
X417890Y214320D01*
X417740Y212450D01*
X417890Y210570D01*
X418360Y208910D01*
X418980Y207660D01*
X419910Y206620D01*
X421150Y206200D01*
X422390Y206620D01*
X423320Y207660D01*
X423940Y208910D01*
X424410Y210570D01*
X424560Y212450D01*
X424410Y214320D01*
X423940Y215990D01*
X423320Y217240D01*
X422390Y218280D01*
X421150Y218700D01*
G01X320240Y238470D02*
X323960D01*
G01X321950Y241180D02*
Y235760D01*
G01X330940Y236800D02*
X331870Y235340D01*
X333110Y234510D01*
X334510Y234300D01*
X335750Y234510D01*
X336990Y235550D01*
X337760Y236800D01*
X337910Y238050D01*
X337610Y239510D01*
X336520Y240550D01*
X335430Y240970D01*
X334040D01*
G01X335430D02*
X336360Y241590D01*
X337140Y242630D01*
X337450Y243880D01*
X337140Y245130D01*
X336360Y246170D01*
X334970Y246800D01*
X333580Y246590D01*
X332180Y245760D01*
G01X346750Y233880D02*
X346440Y234090D01*
Y234510D01*
X346750Y234720D01*
X347060Y234510D01*
Y234090D01*
X346750Y233880D01*
G01X359150Y246800D02*
X357910Y246380D01*
X356980Y245340D01*
X356360Y244090D01*
X355890Y242420D01*
X355740Y240550D01*
X355890Y238670D01*
X356360Y237010D01*
X356980Y235760D01*
X357910Y234720D01*
X359150Y234300D01*
X360390Y234720D01*
X361320Y235760D01*
X361940Y237010D01*
X362410Y238670D01*
X362560Y240550D01*
X362410Y242420D01*
X361940Y244090D01*
X361320Y245340D01*
X360390Y246380D01*
X359150Y246800D01*
G01X368760Y233880D02*
X374340Y246800D01*
G01X381940Y238470D02*
X385960D01*
G01X392940Y236800D02*
X393870Y235340D01*
X395110Y234510D01*
X396510Y234300D01*
X397750Y234510D01*
X398990Y235550D01*
X399760Y236800D01*
X399910Y238050D01*
X399610Y239510D01*
X398520Y240550D01*
X397430Y240970D01*
X396040D01*
G01X397430D02*
X398360Y241590D01*
X399140Y242630D01*
X399450Y243880D01*
X399140Y245130D01*
X398360Y246170D01*
X396970Y246800D01*
X395580Y246590D01*
X394180Y245760D01*
G01X408750Y233880D02*
X408440Y234090D01*
Y234510D01*
X408750Y234720D01*
X409060Y234510D01*
Y234090D01*
X408750Y233880D01*
G01X421150Y246800D02*
X419910Y246380D01*
X418980Y245340D01*
X418360Y244090D01*
X417890Y242420D01*
X417740Y240550D01*
X417890Y238670D01*
X418360Y237010D01*
X418980Y235760D01*
X419910Y234720D01*
X421150Y234300D01*
X422390Y234720D01*
X423320Y235760D01*
X423940Y237010D01*
X424410Y238670D01*
X424560Y240550D01*
X424410Y242420D01*
X423940Y244090D01*
X423320Y245340D01*
X422390Y246380D01*
X421150Y246800D01*
G01X320240Y266570D02*
X323960D01*
G01X321950Y269280D02*
Y263860D01*
G01X330940Y264900D02*
X331870Y263440D01*
X333110Y262610D01*
X334510Y262400D01*
X335750Y262610D01*
X336990Y263650D01*
X337760Y264900D01*
X337910Y266150D01*
X337610Y267610D01*
X336520Y268650D01*
X335430Y269070D01*
X334040D01*
G01X335430D02*
X336360Y269690D01*
X337140Y270730D01*
X337450Y271980D01*
X337140Y273230D01*
X336360Y274270D01*
X334970Y274900D01*
X333580Y274690D01*
X332180Y273860D01*
G01X346750Y261980D02*
X346440Y262190D01*
Y262610D01*
X346750Y262820D01*
X347060Y262610D01*
Y262190D01*
X346750Y261980D01*
G01X359150Y274900D02*
X357910Y274480D01*
X356980Y273440D01*
X356360Y272190D01*
X355890Y270520D01*
X355740Y268650D01*
X355890Y266770D01*
X356360Y265110D01*
X356980Y263860D01*
X357910Y262820D01*
X359150Y262400D01*
X360390Y262820D01*
X361320Y263860D01*
X361940Y265110D01*
X362410Y266770D01*
X362560Y268650D01*
X362410Y270520D01*
X361940Y272190D01*
X361320Y273440D01*
X360390Y274480D01*
X359150Y274900D01*
G01X368760Y261980D02*
X374340Y274900D01*
G01X381940Y266570D02*
X385960D01*
G01X392940Y264900D02*
X393870Y263440D01*
X395110Y262610D01*
X396510Y262400D01*
X397750Y262610D01*
X398990Y263650D01*
X399760Y264900D01*
X399910Y266150D01*
X399610Y267610D01*
X398520Y268650D01*
X397430Y269070D01*
X396040D01*
G01X397430D02*
X398360Y269690D01*
X399140Y270730D01*
X399450Y271980D01*
X399140Y273230D01*
X398360Y274270D01*
X396970Y274900D01*
X395580Y274690D01*
X394180Y273860D01*
G01X408750Y261980D02*
X408440Y262190D01*
Y262610D01*
X408750Y262820D01*
X409060Y262610D01*
Y262190D01*
X408750Y261980D01*
G01X421150Y274900D02*
X419910Y274480D01*
X418980Y273440D01*
X418360Y272190D01*
X417890Y270520D01*
X417740Y268650D01*
X417890Y266770D01*
X418360Y265110D01*
X418980Y263860D01*
X419910Y262820D01*
X421150Y262400D01*
X422390Y262820D01*
X423320Y263860D01*
X423940Y265110D01*
X424410Y266770D01*
X424560Y268650D01*
X424410Y270520D01*
X423940Y272190D01*
X423320Y273440D01*
X422390Y274480D01*
X421150Y274900D01*
G01X314040Y294670D02*
X317760D01*
G01X315750Y297380D02*
Y291960D01*
G01X325200Y300920D02*
X326140Y302170D01*
X327220Y302790D01*
X328460Y303000D01*
X330010Y302580D01*
X331100Y301540D01*
X331410Y300290D01*
X331250Y299040D01*
X330630Y298000D01*
X327530Y295920D01*
X326140Y294460D01*
X325200Y292370D01*
X324890Y290500D01*
X331410D01*
G01X340550Y290080D02*
X340240Y290290D01*
Y290710D01*
X340550Y290920D01*
X340860Y290710D01*
Y290290D01*
X340550Y290080D01*
G01X352950Y303000D02*
X351710Y302580D01*
X350780Y301540D01*
X350160Y300290D01*
X349690Y298620D01*
X349540Y296750D01*
X349690Y294870D01*
X350160Y293210D01*
X350780Y291960D01*
X351710Y290920D01*
X352950Y290500D01*
X354190Y290920D01*
X355120Y291960D01*
X355740Y293210D01*
X356210Y294870D01*
X356360Y296750D01*
X356210Y298620D01*
X355740Y300290D01*
X355120Y301540D01*
X354190Y302580D01*
X352950Y303000D01*
G01X362560Y290080D02*
X368140Y303000D01*
G01X375740Y294670D02*
X379760D01*
G01X390150Y290500D02*
Y303000D01*
X388290Y300500D01*
G01Y290500D02*
X392010D01*
G01X402550Y303000D02*
X401310Y302580D01*
X400380Y301540D01*
X399760Y300290D01*
X399290Y298620D01*
X399140Y296750D01*
X399290Y294870D01*
X399760Y293210D01*
X400380Y291960D01*
X401310Y290920D01*
X402550Y290500D01*
X403790Y290920D01*
X404720Y291960D01*
X405340Y293210D01*
X405810Y294870D01*
X405960Y296750D01*
X405810Y298620D01*
X405340Y300290D01*
X404720Y301540D01*
X403790Y302580D01*
X402550Y303000D01*
G01X414950Y290080D02*
X414640Y290290D01*
Y290710D01*
X414950Y290920D01*
X415260Y290710D01*
Y290290D01*
X414950Y290080D01*
G01X427350Y303000D02*
X426110Y302580D01*
X425180Y301540D01*
X424560Y300290D01*
X424090Y298620D01*
X423940Y296750D01*
X424090Y294870D01*
X424560Y293210D01*
X425180Y291960D01*
X426110Y290920D01*
X427350Y290500D01*
X428590Y290920D01*
X429520Y291960D01*
X430140Y293210D01*
X430610Y294870D01*
X430760Y296750D01*
X430610Y298620D01*
X430140Y300290D01*
X429520Y301540D01*
X428590Y302580D01*
X427350Y303000D01*
G01X321950Y332650D02*
Y320150D01*
G01X318390Y332650D02*
X325510D01*
G01X334350Y320150D02*
X333110Y320360D01*
X332030Y321190D01*
X331090Y322440D01*
X330470Y323900D01*
X330160Y325570D01*
Y327230D01*
X330470Y328900D01*
X331090Y330360D01*
X332030Y331610D01*
X333110Y332440D01*
X334350Y332650D01*
X335590Y332440D01*
X336670Y331610D01*
X337610Y330360D01*
X338230Y328900D01*
X338540Y327230D01*
Y325570D01*
X338230Y323900D01*
X337610Y322440D01*
X336670Y321190D01*
X335590Y320360D01*
X334350Y320150D01*
G01X343650Y332650D02*
Y320150D01*
X349850D01*
G01X362250D02*
X356050D01*
Y332650D01*
X362250D01*
G01X359770Y326610D02*
X356050D01*
G01X368450Y320150D02*
Y332650D01*
X372320D01*
X373560Y332020D01*
X374340Y331190D01*
X374650Y329520D01*
X374340Y327860D01*
X373410Y326820D01*
X372320Y326190D01*
X368450D01*
G01X372320D02*
X374650Y320150D01*
G01X380070D02*
X383950Y332650D01*
X387830Y320150D01*
G01X386430Y324520D02*
X381470D01*
G01X392790Y320150D02*
Y332650D01*
X399910Y320150D01*
Y332650D01*
G01X412160Y331610D02*
X411230Y332230D01*
X410150Y332650D01*
X408910D01*
X407510Y332020D01*
X406430Y330980D01*
X405650Y329730D01*
X405030Y327650D01*
X404870Y325770D01*
X405190Y323900D01*
X405650Y322650D01*
X406580Y321400D01*
X407670Y320570D01*
X408750Y320150D01*
X409830D01*
X410920Y320570D01*
X411850Y321190D01*
X412630Y322020D01*
G01X424250Y320150D02*
X418050D01*
Y332650D01*
X424250D01*
G01X421770Y326610D02*
X418050D01*
G01X466100Y338900D02*
Y170300D01*
G01X495550Y178100D02*
Y190600D01*
X499270D01*
X500510Y189970D01*
X501440Y188520D01*
X501750Y186850D01*
X501440Y185180D01*
X500660Y183930D01*
X499270Y183310D01*
X495550D01*
G01X507950Y190600D02*
Y178100D01*
X514150D01*
G01X519570D02*
X523450Y190600D01*
X527330Y178100D01*
G01X525930Y182470D02*
X520970D01*
G01X535850Y190600D02*
Y178100D01*
G01X532290Y190600D02*
X539410D01*
G01X551350Y178100D02*
X545150D01*
Y190600D01*
X551350D01*
G01X548870Y184560D02*
X545150D01*
G01X557240Y178100D02*
Y190600D01*
X560340D01*
X561580Y189970D01*
X562510Y189140D01*
X563290Y187890D01*
X563910Y186430D01*
X564060Y184350D01*
X563910Y182270D01*
X563290Y180810D01*
X562510Y179560D01*
X561580Y178720D01*
X560340Y178100D01*
X557240D01*
G01X495550Y206200D02*
Y218700D01*
X499270D01*
X500510Y218070D01*
X501440Y216620D01*
X501750Y214950D01*
X501440Y213280D01*
X500660Y212030D01*
X499270Y211410D01*
X495550D01*
G01X507950Y218700D02*
Y206200D01*
X514150D01*
G01X519570D02*
X523450Y218700D01*
X527330Y206200D01*
G01X525930Y210570D02*
X520970D01*
G01X535850Y218700D02*
Y206200D01*
G01X532290Y218700D02*
X539410D01*
G01X551350Y206200D02*
X545150D01*
Y218700D01*
X551350D01*
G01X548870Y212660D02*
X545150D01*
G01X557240Y206200D02*
Y218700D01*
X560340D01*
X561580Y218070D01*
X562510Y217240D01*
X563290Y215990D01*
X563910Y214530D01*
X564060Y212450D01*
X563910Y210370D01*
X563290Y208910D01*
X562510Y207660D01*
X561580Y206820D01*
X560340Y206200D01*
X557240D01*
G01X495550Y234300D02*
Y246800D01*
X499270D01*
X500510Y246170D01*
X501440Y244720D01*
X501750Y243050D01*
X501440Y241380D01*
X500660Y240130D01*
X499270Y239510D01*
X495550D01*
G01X507950Y246800D02*
Y234300D01*
X514150D01*
G01X519570D02*
X523450Y246800D01*
X527330Y234300D01*
G01X525930Y238670D02*
X520970D01*
G01X535850Y246800D02*
Y234300D01*
G01X532290Y246800D02*
X539410D01*
G01X551350Y234300D02*
X545150D01*
Y246800D01*
X551350D01*
G01X548870Y240760D02*
X545150D01*
G01X557240Y234300D02*
Y246800D01*
X560340D01*
X561580Y246170D01*
X562510Y245340D01*
X563290Y244090D01*
X563910Y242630D01*
X564060Y240550D01*
X563910Y238470D01*
X563290Y237010D01*
X562510Y235760D01*
X561580Y234920D01*
X560340Y234300D01*
X557240D01*
G01X495550Y262400D02*
Y274900D01*
X499270D01*
X500510Y274270D01*
X501440Y272820D01*
X501750Y271150D01*
X501440Y269480D01*
X500660Y268230D01*
X499270Y267610D01*
X495550D01*
G01X507950Y274900D02*
Y262400D01*
X514150D01*
G01X519570D02*
X523450Y274900D01*
X527330Y262400D01*
G01X525930Y266770D02*
X520970D01*
G01X535850Y274900D02*
Y262400D01*
G01X532290Y274900D02*
X539410D01*
G01X551350Y262400D02*
X545150D01*
Y274900D01*
X551350D01*
G01X548870Y268860D02*
X545150D01*
G01X557240Y262400D02*
Y274900D01*
X560340D01*
X561580Y274270D01*
X562510Y273440D01*
X563290Y272190D01*
X563910Y270730D01*
X564060Y268650D01*
X563910Y266570D01*
X563290Y265110D01*
X562510Y263860D01*
X561580Y263020D01*
X560340Y262400D01*
X557240D01*
G01X495550Y290500D02*
Y303000D01*
X499270D01*
X500510Y302370D01*
X501440Y300920D01*
X501750Y299250D01*
X501440Y297580D01*
X500660Y296330D01*
X499270Y295710D01*
X495550D01*
G01X507950Y303000D02*
Y290500D01*
X514150D01*
G01X519570D02*
X523450Y303000D01*
X527330Y290500D01*
G01X525930Y294870D02*
X520970D01*
G01X535850Y303000D02*
Y290500D01*
G01X532290Y303000D02*
X539410D01*
G01X551350Y290500D02*
X545150D01*
Y303000D01*
X551350D01*
G01X548870Y296960D02*
X545150D01*
G01X557240Y290500D02*
Y303000D01*
X560340D01*
X561580Y302370D01*
X562510Y301540D01*
X563290Y300290D01*
X563910Y298830D01*
X564060Y296750D01*
X563910Y294670D01*
X563290Y293210D01*
X562510Y291960D01*
X561580Y291120D01*
X560340Y290500D01*
X557240D01*
G01X495550Y320150D02*
Y332650D01*
X499270D01*
X500510Y332020D01*
X501440Y330570D01*
X501750Y328900D01*
X501440Y327230D01*
X500660Y325980D01*
X499270Y325360D01*
X495550D01*
G01X507950Y332650D02*
Y320150D01*
X514150D01*
G01X519570D02*
X523450Y332650D01*
X527330Y320150D01*
G01X525930Y324520D02*
X520970D01*
G01X535850Y332650D02*
Y320150D01*
G01X532290Y332650D02*
X539410D01*
G01X551350Y320150D02*
X545150D01*
Y332650D01*
X551350D01*
G01X548870Y326610D02*
X545150D01*
G01X557240Y320150D02*
Y332650D01*
X560340D01*
X561580Y332020D01*
X562510Y331190D01*
X563290Y329940D01*
X563910Y328480D01*
X564060Y326400D01*
X563910Y324320D01*
X563290Y322860D01*
X562510Y321610D01*
X561580Y320770D01*
X560340Y320150D01*
X557240D01*
G01X593200Y338900D02*
Y170300D01*
G01X633810Y178100D02*
Y190600D01*
X628070Y181640D01*
X635830D01*
G01X633810Y206200D02*
Y218700D01*
X628070Y209740D01*
X635830D01*
G01X631950Y234300D02*
X633030Y234510D01*
X634270Y235130D01*
X635050Y236170D01*
X635360Y237630D01*
X635050Y239090D01*
X634120Y240340D01*
X632720Y240970D01*
X631180D01*
X630240Y241380D01*
X629470Y242420D01*
X629160Y243880D01*
X629630Y245340D01*
X630710Y246380D01*
X631950Y246800D01*
X633190Y246380D01*
X634270Y245340D01*
X634740Y243880D01*
X634430Y242420D01*
X633660Y241380D01*
X632720Y240970D01*
X631180D01*
X629780Y240340D01*
X628850Y239090D01*
X628540Y237630D01*
X628850Y236170D01*
X629630Y235130D01*
X630870Y234510D01*
X631950Y234300D01*
G01X625750Y262400D02*
Y274900D01*
X623890Y272400D01*
G01Y262400D02*
X627610D01*
G01X635200Y272820D02*
X636140Y274070D01*
X637220Y274690D01*
X638460Y274900D01*
X640010Y274480D01*
X641100Y273440D01*
X641410Y272190D01*
X641250Y270940D01*
X640630Y269900D01*
X637530Y267820D01*
X636140Y266360D01*
X635200Y264270D01*
X634890Y262400D01*
X641410D01*
G01X622800Y300920D02*
X623740Y302170D01*
X624820Y302790D01*
X626060Y303000D01*
X627610Y302580D01*
X628700Y301540D01*
X629010Y300290D01*
X628850Y299040D01*
X628230Y298000D01*
X625130Y295920D01*
X623740Y294460D01*
X622800Y292370D01*
X622490Y290500D01*
X629010D01*
G01X634740Y292370D02*
X635670Y291330D01*
X636750Y290710D01*
X638150Y290500D01*
X639550Y290920D01*
X640630Y291750D01*
X641410Y293210D01*
X641560Y294870D01*
X641250Y296540D01*
X640470Y297580D01*
X639390Y298420D01*
X638310Y298620D01*
X637220Y298420D01*
X635830Y297580D01*
X636290Y303000D01*
X640470D01*
G01X619550Y320150D02*
X618310Y320360D01*
X617230Y321190D01*
X616290Y322440D01*
X615670Y323900D01*
X615360Y325570D01*
Y327230D01*
X615670Y328900D01*
X616290Y330360D01*
X617230Y331610D01*
X618310Y332440D01*
X619550Y332650D01*
X620790Y332440D01*
X621870Y331610D01*
X622810Y330360D01*
X623430Y328900D01*
X623740Y327230D01*
Y325570D01*
X623430Y323900D01*
X622810Y322440D01*
X621870Y321190D01*
X620790Y320360D01*
X619550Y320150D01*
G01X620790Y323480D02*
X622650Y320150D01*
G01X631950Y332650D02*
Y320150D01*
G01X628390Y332650D02*
X635510D01*
G01X644350Y320150D02*
Y325770D01*
X641250Y332650D01*
G01X647450D02*
X644350Y325770D01*
M02*
