G04 ================== begin FILE IDENTIFICATION RECORD ==================*
G04 Layout Name:  ESP8266SW.brd*
G04 Film Name:    SILK_TOP*
G04 File Format:  Gerber RS274X*
G04 File Origin:  Cadence Allegro 16.6-P004*
G04 Origin Date:  Tue Dec 05 23:45:08 2017*
G04 *
G04 Layer:  REF DES/SILKSCREEN_TOP*
G04 Layer:  PACKAGE GEOMETRY/SILKSCREEN_TOP*
G04 Layer:  BOARD GEOMETRY/SILKSCREEN_TOP*
G04 *
G04 Offset:    (0.0 0.0)*
G04 Mirror:    No*
G04 Mode:      Positive*
G04 Rotation:  0*
G04 FullContactRelief:  No*
G04 UndefLineWidth:     1.0*
G04 ================== end FILE IDENTIFICATION RECORD ====================*
%FSLAX25Y25*MOIN*%
%IR0*IPPOS*OFA0.00000B0.00000*MIA0B0*SFA1.00000B1.00000*%
%ADD10C,.005*%
%ADD11C,.006*%
%ADD12C,.007*%
%ADD13C,.008*%
%ADD14C,.0079*%
%ADD15C,.0098*%
%ADD16C,.01*%
%ADD17C,.0236*%
G75*
%LPD*%
G75*
G54D10*
G01X13190Y28500D02*
X14150Y31600D01*
X15110Y28500D01*
G01X14760Y29580D02*
X13540D01*
G01X18090Y31340D02*
X17860Y31500D01*
X17600Y31600D01*
X17290D01*
X16940Y31440D01*
X16680Y31190D01*
X16480Y30880D01*
X16330Y30360D01*
X16290Y29890D01*
X16370Y29430D01*
X16480Y29120D01*
X16710Y28810D01*
X16980Y28600D01*
X17250Y28500D01*
X17520D01*
X17790Y28600D01*
X18020Y28760D01*
X18210Y28960D01*
G01X11380Y59120D02*
X11580Y58810D01*
X11800Y58600D01*
X12070Y58500D01*
X12380Y58600D01*
X12610Y58810D01*
X12840Y59120D01*
X12920Y59530D01*
Y61600D01*
G01X14480Y58500D02*
Y61600D01*
X15400D01*
X15710Y61440D01*
X15940Y61080D01*
X16020Y60670D01*
X15940Y60260D01*
X15750Y59950D01*
X15400Y59790D01*
X14480D01*
G01X17620Y61080D02*
X17850Y61390D01*
X18120Y61550D01*
X18430Y61600D01*
X18810Y61500D01*
X19080Y61240D01*
X19160Y60930D01*
X19120Y60620D01*
X18960Y60360D01*
X18200Y59840D01*
X17850Y59480D01*
X17620Y58960D01*
X17540Y58500D01*
X19160D01*
G01X9880Y97100D02*
Y94000D01*
X11420D01*
G01X13750D02*
X13440Y94050D01*
X13180Y94260D01*
X12940Y94570D01*
X12790Y94930D01*
X12710Y95340D01*
Y95760D01*
X12790Y96170D01*
X12940Y96530D01*
X13180Y96840D01*
X13440Y97050D01*
X13750Y97100D01*
X14060Y97050D01*
X14320Y96840D01*
X14560Y96530D01*
X14710Y96170D01*
X14790Y95760D01*
Y95340D01*
X14710Y94930D01*
X14560Y94570D01*
X14320Y94260D01*
X14060Y94050D01*
X13750Y94000D01*
G01X15890D02*
X16850Y97100D01*
X17810Y94000D01*
G01X17460Y95080D02*
X16240D01*
G01X19110Y94000D02*
Y97100D01*
X19870D01*
X20180Y96940D01*
X20410Y96740D01*
X20600Y96430D01*
X20760Y96070D01*
X20790Y95550D01*
X20760Y95030D01*
X20600Y94670D01*
X20410Y94360D01*
X20180Y94150D01*
X19870Y94000D01*
X19110D01*
G01X11880Y123620D02*
X12080Y123310D01*
X12300Y123100D01*
X12570Y123000D01*
X12880Y123100D01*
X13110Y123310D01*
X13340Y123620D01*
X13420Y124030D01*
Y126100D01*
G01X14980Y123000D02*
Y126100D01*
X15900D01*
X16210Y125940D01*
X16440Y125580D01*
X16520Y125170D01*
X16440Y124760D01*
X16250Y124450D01*
X15900Y124290D01*
X14980D01*
G01X18850Y123000D02*
Y126100D01*
X18390Y125480D01*
G01Y123000D02*
X19310D01*
G01X32810Y86100D02*
Y83880D01*
X32960Y83410D01*
X33270Y83100D01*
X33650Y83000D01*
X34030Y83100D01*
X34340Y83410D01*
X34490Y83880D01*
Y86100D01*
G01X37210Y83000D02*
Y86100D01*
X35790Y83880D01*
X37710D01*
G01X58210Y147500D02*
Y150000D01*
X58750D01*
X58960Y149870D01*
X59120Y149710D01*
X59250Y149460D01*
X59360Y149170D01*
X59390Y148750D01*
X59360Y148330D01*
X59250Y148040D01*
X59120Y147790D01*
X58960Y147620D01*
X58750Y147500D01*
X58210D01*
G01X60330D02*
X61000Y150000D01*
X61670Y147500D01*
G01X61430Y148370D02*
X60570D01*
G01X62590Y147500D02*
Y150000D01*
X63810Y147500D01*
Y150000D01*
G01X65560Y148750D02*
X66090D01*
Y148000D01*
X65930Y147750D01*
X65750Y147580D01*
X65480Y147500D01*
X65210Y147580D01*
X65030Y147750D01*
X64870Y148000D01*
X64760Y148290D01*
X64710Y148620D01*
Y148920D01*
X64760Y149170D01*
X64870Y149460D01*
X65030Y149710D01*
X65190Y149870D01*
X65400Y150000D01*
X65590D01*
X65800Y149920D01*
X65960Y149750D01*
G01X68130Y147500D02*
X67070D01*
Y150000D01*
X68130D01*
G01X67710Y148790D02*
X67070D01*
G01X69270Y147500D02*
Y150000D01*
X69930D01*
X70150Y149870D01*
X70280Y149710D01*
X70330Y149370D01*
X70280Y149040D01*
X70120Y148830D01*
X69930Y148710D01*
X69270D01*
G01X69930D02*
X70330Y147500D01*
G01X58240Y144400D02*
Y146900D01*
G01X59360D02*
Y144400D01*
G01Y145650D02*
X58240D01*
G01X61000Y146070D02*
Y144400D01*
G01Y146730D02*
X60950Y146770D01*
Y146860D01*
X61000Y146900D01*
X61050Y146860D01*
Y146770D01*
X61000Y146730D01*
G01X62830Y143770D02*
X63010Y143610D01*
X63230Y143570D01*
X63410Y143610D01*
X63570Y143820D01*
X63680Y144110D01*
Y146070D01*
G01Y145730D02*
X63570Y145900D01*
X63410Y146020D01*
X63230Y146070D01*
X63010Y145980D01*
X62880Y145820D01*
X62770Y145520D01*
X62720Y145230D01*
X62750Y144980D01*
X62850Y144690D01*
X63010Y144480D01*
X63230Y144400D01*
X63390Y144440D01*
X63570Y144610D01*
X63680Y144770D01*
G01X64950Y144400D02*
Y146900D01*
G01Y145690D02*
X65080Y145900D01*
X65210Y146020D01*
X65430Y146070D01*
X65590Y146020D01*
X65770Y145860D01*
X65850Y145610D01*
Y144400D01*
G01X69130Y146900D02*
X69800Y144400D01*
X70470Y146900D01*
G01X72000Y144400D02*
X71840Y144440D01*
X71680Y144610D01*
X71570Y144900D01*
X71520Y145230D01*
X71570Y145570D01*
X71680Y145860D01*
X71840Y146020D01*
X72000Y146070D01*
X72160Y146020D01*
X72320Y145860D01*
X72430Y145570D01*
X72450Y145230D01*
X72430Y144900D01*
X72320Y144610D01*
X72160Y144440D01*
X72000Y144400D01*
G01X74200D02*
Y146900D01*
G01X76400D02*
Y144400D01*
G01X76030Y146070D02*
X76770D01*
G01X79080Y144400D02*
Y146070D01*
G01Y145780D02*
X78970Y145940D01*
X78810Y146020D01*
X78630Y146070D01*
X78440Y145980D01*
X78280Y145820D01*
X78170Y145570D01*
X78120Y145230D01*
X78170Y144900D01*
X78280Y144650D01*
X78440Y144480D01*
X78630Y144400D01*
X78810Y144440D01*
X78970Y144570D01*
X79080Y144730D01*
G01X80430Y143770D02*
X80610Y143610D01*
X80830Y143570D01*
X81010Y143610D01*
X81170Y143820D01*
X81280Y144110D01*
Y146070D01*
G01Y145730D02*
X81170Y145900D01*
X81010Y146020D01*
X80830Y146070D01*
X80610Y145980D01*
X80480Y145820D01*
X80370Y145520D01*
X80320Y145230D01*
X80350Y144980D01*
X80450Y144690D01*
X80610Y144480D01*
X80830Y144400D01*
X80990Y144440D01*
X81170Y144610D01*
X81280Y144770D01*
G01X82600Y145520D02*
X83450D01*
X83370Y145820D01*
X83240Y145980D01*
X83050Y146070D01*
X82870Y146020D01*
X82710Y145900D01*
X82600Y145610D01*
X82550Y145360D01*
Y145110D01*
X82600Y144860D01*
X82730Y144610D01*
X82890Y144440D01*
X83080Y144400D01*
X83270Y144480D01*
X83450Y144730D01*
G01X40310Y146600D02*
Y144380D01*
X40460Y143910D01*
X40770Y143600D01*
X41150Y143500D01*
X41530Y143600D01*
X41840Y143910D01*
X41990Y144380D01*
Y146600D01*
G01X43520Y146080D02*
X43750Y146390D01*
X44020Y146550D01*
X44330Y146600D01*
X44710Y146500D01*
X44980Y146240D01*
X45060Y145930D01*
X45020Y145620D01*
X44860Y145360D01*
X44100Y144840D01*
X43750Y144480D01*
X43520Y143960D01*
X43440Y143500D01*
X45060D01*
G01X162710Y145500D02*
Y148000D01*
X163250D01*
X163460Y147870D01*
X163620Y147710D01*
X163750Y147460D01*
X163860Y147170D01*
X163890Y146750D01*
X163860Y146330D01*
X163750Y146040D01*
X163620Y145790D01*
X163460Y145620D01*
X163250Y145500D01*
X162710D01*
G01X165100Y146620D02*
X165950D01*
X165870Y146920D01*
X165740Y147080D01*
X165550Y147170D01*
X165370Y147120D01*
X165210Y147000D01*
X165100Y146710D01*
X165050Y146460D01*
Y146210D01*
X165100Y145960D01*
X165230Y145710D01*
X165390Y145540D01*
X165580Y145500D01*
X165770Y145580D01*
X165950Y145830D01*
G01X167300Y145790D02*
X167430Y145620D01*
X167620Y145500D01*
X167780D01*
X167940Y145580D01*
X168050Y145710D01*
X168100Y145870D01*
X168070Y146130D01*
X167970Y146250D01*
X167490Y146500D01*
X167380Y146790D01*
X167430Y147000D01*
X167540Y147120D01*
X167700Y147170D01*
X167860Y147120D01*
X168020Y147000D01*
G01X169900Y147170D02*
Y145500D01*
G01Y147830D02*
X169850Y147870D01*
Y147960D01*
X169900Y148000D01*
X169950Y147960D01*
Y147870D01*
X169900Y147830D01*
G01X171730Y144870D02*
X171910Y144710D01*
X172130Y144670D01*
X172310Y144710D01*
X172470Y144920D01*
X172580Y145210D01*
Y147170D01*
G01Y146830D02*
X172470Y147000D01*
X172310Y147120D01*
X172130Y147170D01*
X171910Y147080D01*
X171780Y146920D01*
X171670Y146620D01*
X171620Y146330D01*
X171650Y146080D01*
X171750Y145790D01*
X171910Y145580D01*
X172130Y145500D01*
X172290Y145540D01*
X172470Y145710D01*
X172580Y145870D01*
G01X173850Y145500D02*
Y147170D01*
G01Y146750D02*
X173950Y146960D01*
X174110Y147120D01*
X174330Y147170D01*
X174510Y147120D01*
X174670Y146960D01*
X174750Y146670D01*
Y145500D01*
G01X176100Y146620D02*
X176950D01*
X176870Y146920D01*
X176740Y147080D01*
X176550Y147170D01*
X176370Y147120D01*
X176210Y147000D01*
X176100Y146710D01*
X176050Y146460D01*
Y146210D01*
X176100Y145960D01*
X176230Y145710D01*
X176390Y145540D01*
X176580Y145500D01*
X176770Y145580D01*
X176950Y145830D01*
G01X179180Y148000D02*
Y145500D01*
G01Y145870D02*
X179070Y145670D01*
X178910Y145540D01*
X178730Y145500D01*
X178510Y145580D01*
X178350Y145790D01*
X178250Y146040D01*
X178220Y146330D01*
X178250Y146620D01*
X178350Y146880D01*
X178510Y147080D01*
X178730Y147170D01*
X178910Y147120D01*
X179050Y147040D01*
X179180Y146880D01*
G01X182620Y145500D02*
Y148000D01*
G01Y146750D02*
X182750Y147000D01*
X182910Y147120D01*
X183070Y147170D01*
X183310Y147080D01*
X183470Y146920D01*
X183580Y146620D01*
Y146290D01*
X183530Y145960D01*
X183420Y145710D01*
X183230Y145540D01*
X183070Y145500D01*
X182910Y145540D01*
X182750Y145670D01*
X182620Y145870D01*
G01X184740Y144750D02*
X184900Y144670D01*
X185110Y144750D01*
X185250Y144920D01*
X185350Y145130D01*
X185510Y145790D01*
X185860Y147170D01*
G01X185010D02*
X185510Y145790D01*
G01X189910Y146830D02*
X190020Y146960D01*
X190100Y147170D01*
X190150Y147460D01*
X190100Y147710D01*
X189990Y147870D01*
X189810Y148000D01*
X189090D01*
Y145500D01*
X189970D01*
X190150Y145670D01*
X190260Y145920D01*
X190310Y146210D01*
X190260Y146500D01*
X190100Y146750D01*
X189910Y146830D01*
X189090D01*
G01X191900Y147170D02*
Y145500D01*
G01Y147830D02*
X191850Y147870D01*
Y147960D01*
X191900Y148000D01*
X191950Y147960D01*
Y147870D01*
X191900Y147830D01*
G01X193730Y145500D02*
Y147170D01*
G01Y146830D02*
X193860Y147000D01*
X193990Y147120D01*
X194180Y147170D01*
X194310Y147120D01*
X194470Y147000D01*
G01X196780Y148000D02*
Y145500D01*
G01Y145870D02*
X196670Y145670D01*
X196510Y145540D01*
X196330Y145500D01*
X196110Y145580D01*
X195950Y145790D01*
X195850Y146040D01*
X195820Y146330D01*
X195850Y146620D01*
X195950Y146880D01*
X196110Y147080D01*
X196330Y147170D01*
X196510Y147120D01*
X196650Y147040D01*
X196780Y146880D01*
G01X198500Y145420D02*
X198450Y145460D01*
Y145540D01*
X198500Y145580D01*
X198550Y145540D01*
Y145460D01*
X198500Y145420D01*
G01X200700D02*
X200650Y145460D01*
Y145540D01*
X200700Y145580D01*
X200750Y145540D01*
Y145460D01*
X200700Y145420D01*
G01X202900D02*
X202850Y145460D01*
Y145540D01*
X202900Y145580D01*
X202950Y145540D01*
Y145460D01*
X202900Y145420D01*
G01X212330Y10700D02*
X210570Y8930D01*
G01X211900Y11140D02*
X212770Y10270D01*
G01X211730Y7770D02*
X214290Y8750D01*
G01X213500Y9540D02*
X212520Y6980D01*
G01X213270Y6230D02*
X215040Y8000D01*
X215420Y7620D01*
X215480Y7380D01*
X215470Y7150D01*
X215390Y6880D01*
X215260Y6600D01*
X214980Y6280D01*
X214670Y6010D01*
X214390Y5880D01*
X214120Y5790D01*
X213890D01*
X213650Y5850D01*
X213270Y6230D01*
G01X200690Y9310D02*
X202460Y11080D01*
X202930Y10610D01*
X202990Y10370D01*
X202970Y10160D01*
X202770Y9880D01*
X202500Y9680D01*
X202230Y9650D01*
X202010Y9690D01*
X201540Y10170D01*
G01X202010Y9690D02*
X201440Y8560D01*
G01X202230Y7770D02*
X204790Y8750D01*
G01X204000Y9540D02*
X203020Y6980D01*
G01X203770Y6230D02*
X205540Y8000D01*
X205920Y7620D01*
X205980Y7380D01*
X205970Y7150D01*
X205890Y6880D01*
X205760Y6600D01*
X205480Y6280D01*
X205170Y6010D01*
X204890Y5880D01*
X204620Y5790D01*
X204390D01*
X204150Y5850D01*
X203770Y6230D01*
G01X191560Y10210D02*
X191940Y9830D01*
X191410Y9300D01*
X191120Y9230D01*
X190870Y9250D01*
X190620Y9380D01*
X190490Y9630D01*
X190480Y9880D01*
X190540Y10160D01*
X190670Y10450D01*
X190870Y10720D01*
X191080Y10930D01*
X191290Y11070D01*
X191570Y11200D01*
X191860Y11260D01*
X192090D01*
X192330Y11200D01*
X192470Y11070D01*
X192560Y10860D01*
X192550Y10630D01*
G01X191690Y8310D02*
X193460Y10080D01*
X192560Y7440D01*
X194330Y9210D01*
G01X193270Y6730D02*
X195040Y8500D01*
X195420Y8120D01*
X195480Y7880D01*
X195470Y7650D01*
X195390Y7380D01*
X195260Y7100D01*
X194980Y6780D01*
X194670Y6510D01*
X194390Y6380D01*
X194120Y6290D01*
X193890D01*
X193650Y6350D01*
X193270Y6730D01*
G01X227000Y4200D02*
X187000D01*
Y27800D01*
X227000D01*
G01X211490Y50340D02*
X211260Y50500D01*
X211000Y50600D01*
X210690D01*
X210340Y50440D01*
X210080Y50190D01*
X209880Y49880D01*
X209730Y49360D01*
X209690Y48890D01*
X209770Y48430D01*
X209880Y48120D01*
X210110Y47810D01*
X210380Y47600D01*
X210650Y47500D01*
X210920D01*
X211190Y47600D01*
X211420Y47760D01*
X211610Y47960D01*
G01X213020Y50080D02*
X213250Y50390D01*
X213520Y50550D01*
X213830Y50600D01*
X214210Y50500D01*
X214480Y50240D01*
X214560Y49930D01*
X214520Y49620D01*
X214360Y49360D01*
X213600Y48840D01*
X213250Y48480D01*
X213020Y47960D01*
X212940Y47500D01*
X214560D01*
G01X185490Y49840D02*
X185260Y50000D01*
X185000Y50100D01*
X184690D01*
X184340Y49940D01*
X184080Y49690D01*
X183880Y49380D01*
X183730Y48860D01*
X183690Y48390D01*
X183770Y47930D01*
X183880Y47620D01*
X184110Y47310D01*
X184380Y47100D01*
X184650Y47000D01*
X184920D01*
X185190Y47100D01*
X185420Y47260D01*
X185610Y47460D01*
G01X186910Y47620D02*
X187140Y47260D01*
X187440Y47050D01*
X187790Y47000D01*
X188100Y47050D01*
X188400Y47310D01*
X188590Y47620D01*
X188630Y47930D01*
X188560Y48290D01*
X188290Y48550D01*
X188020Y48650D01*
X187670D01*
G01X188020D02*
X188250Y48810D01*
X188440Y49070D01*
X188520Y49380D01*
X188440Y49690D01*
X188250Y49940D01*
X187900Y50100D01*
X187560Y50050D01*
X187210Y49840D01*
G01X183310Y81100D02*
Y78880D01*
X183460Y78410D01*
X183770Y78100D01*
X184150Y78000D01*
X184530Y78100D01*
X184840Y78410D01*
X184990Y78880D01*
Y81100D01*
G01X186410Y78460D02*
X186640Y78210D01*
X186900Y78050D01*
X187250Y78000D01*
X187600Y78100D01*
X187860Y78310D01*
X188060Y78670D01*
X188090Y79080D01*
X188020Y79500D01*
X187820Y79760D01*
X187560Y79960D01*
X187290Y80010D01*
X187020Y79960D01*
X186680Y79760D01*
X186790Y81100D01*
X187820D01*
G01X220920Y9610D02*
X220880Y9350D01*
X220930Y9130D01*
X221070Y8930D01*
X221290Y8820D01*
X221540Y8810D01*
X221840Y8920D01*
X222100Y9140D01*
X222300Y9410D01*
X222350Y9650D01*
X222340Y9900D01*
X222230Y10060D01*
X222070Y10170D01*
X221780Y10220D01*
X222610Y10930D01*
X223120Y10420D01*
G01X223920Y9610D02*
X222630Y7370D01*
X224860Y8670D01*
G01X225950Y7580D02*
X225740Y7670D01*
X225480Y7640D01*
X225230Y7540D01*
X224940Y7360D01*
X224650Y7110D01*
X224410Y6830D01*
X224230Y6540D01*
X224130Y6280D01*
X224090Y6020D01*
X224190Y5810D01*
X224400Y5720D01*
X224660Y5760D01*
X224910Y5860D01*
X225200Y6040D01*
X225480Y6280D01*
X225730Y6570D01*
X225910Y6860D01*
X226010Y7110D01*
X226050Y7370D01*
X225950Y7580D01*
G01X228380Y25120D02*
X228580Y24810D01*
X228800Y24600D01*
X229070Y24500D01*
X229380Y24600D01*
X229610Y24810D01*
X229840Y25120D01*
X229920Y25530D01*
Y27600D01*
G01X232250Y24500D02*
Y27600D01*
X231790Y26980D01*
G01Y24500D02*
X232710D01*
G01X227000Y4190D02*
Y27810D01*
G01X220290Y62340D02*
X220060Y62500D01*
X219800Y62600D01*
X219490D01*
X219140Y62440D01*
X218880Y62190D01*
X218680Y61880D01*
X218530Y61360D01*
X218490Y60890D01*
X218570Y60430D01*
X218680Y60120D01*
X218910Y59810D01*
X219180Y59600D01*
X219450Y59500D01*
X219720D01*
X219990Y59600D01*
X220220Y59760D01*
X220410Y59960D01*
G01X222550Y59500D02*
Y62600D01*
X222090Y61980D01*
G01Y59500D02*
X223010D01*
G01X220080Y86970D02*
Y90070D01*
X221040D01*
X221350Y89910D01*
X221540Y89710D01*
X221620Y89290D01*
X221540Y88880D01*
X221310Y88620D01*
X221040Y88470D01*
X220080D01*
G01X221040D02*
X221620Y86970D01*
G01X223950D02*
Y90070D01*
X223490Y89450D01*
G01Y86970D02*
X224410D01*
G01X216500Y118500D02*
X216520D01*
Y126000D01*
X220000D01*
G01X227500Y118500D02*
X227480Y126000D01*
X224000D01*
G01X218530Y98970D02*
Y102070D01*
X219490D01*
X219800Y101910D01*
X219990Y101710D01*
X220070Y101290D01*
X219990Y100880D01*
X219760Y100620D01*
X219490Y100470D01*
X218530D01*
G01X219490D02*
X220070Y98970D01*
G01X222400D02*
Y102070D01*
X221940Y101450D01*
G01Y98970D02*
X222860D01*
G01X225500Y102070D02*
X225190Y101970D01*
X224960Y101710D01*
X224810Y101400D01*
X224690Y100980D01*
X224660Y100520D01*
X224690Y100050D01*
X224810Y99640D01*
X224960Y99330D01*
X225190Y99070D01*
X225500Y98970D01*
X225810Y99070D01*
X226040Y99330D01*
X226190Y99640D01*
X226310Y100050D01*
X226340Y100520D01*
X226310Y100980D01*
X226190Y101400D01*
X226040Y101710D01*
X225810Y101970D01*
X225500Y102070D01*
G01X218530Y112970D02*
Y116070D01*
X219490D01*
X219800Y115910D01*
X219990Y115710D01*
X220070Y115290D01*
X219990Y114880D01*
X219760Y114620D01*
X219490Y114470D01*
X218530D01*
G01X219490D02*
X220070Y112970D01*
G01X222400D02*
Y116070D01*
X221940Y115450D01*
G01Y112970D02*
X222860D01*
G01X225500D02*
Y116070D01*
X225040Y115450D01*
G01Y112970D02*
X225960D01*
G01X230810Y139600D02*
Y137380D01*
X230960Y136910D01*
X231270Y136600D01*
X231650Y136500D01*
X232030Y136600D01*
X232340Y136910D01*
X232490Y137380D01*
Y139600D01*
G01X234750Y136500D02*
Y139600D01*
X234290Y138980D01*
G01Y136500D02*
X235210D01*
G01X221150Y129500D02*
X220840Y129550D01*
X220580Y129760D01*
X220340Y130070D01*
X220190Y130430D01*
X220110Y130840D01*
Y131260D01*
X220190Y131670D01*
X220340Y132030D01*
X220580Y132340D01*
X220840Y132550D01*
X221150Y132600D01*
X221460Y132550D01*
X221720Y132340D01*
X221960Y132030D01*
X222110Y131670D01*
X222190Y131260D01*
Y130840D01*
X222110Y130430D01*
X221960Y130070D01*
X221720Y129760D01*
X221460Y129550D01*
X221150Y129500D01*
G01X221460Y130330D02*
X221920Y129500D01*
G01X224250D02*
Y132600D01*
X223790Y131980D01*
G01Y129500D02*
X224710D01*
G01X250420Y144580D02*
X250650Y144890D01*
X250920Y145050D01*
X251230Y145100D01*
X251610Y145000D01*
X251880Y144740D01*
X251960Y144430D01*
X251920Y144120D01*
X251760Y143860D01*
X251000Y143340D01*
X250650Y142980D01*
X250420Y142460D01*
X250340Y142000D01*
X251960D01*
G01X254250Y145100D02*
X253940Y145000D01*
X253710Y144740D01*
X253560Y144430D01*
X253440Y144010D01*
X253410Y143550D01*
X253440Y143080D01*
X253560Y142670D01*
X253710Y142360D01*
X253940Y142100D01*
X254250Y142000D01*
X254560Y142100D01*
X254790Y142360D01*
X254940Y142670D01*
X255060Y143080D01*
X255090Y143550D01*
X255060Y144010D01*
X254940Y144430D01*
X254790Y144740D01*
X254560Y145000D01*
X254250Y145100D01*
G01X257350Y142000D02*
Y145100D01*
X256890Y144480D01*
G01Y142000D02*
X257810D01*
G01X260370D02*
X260450Y142670D01*
X260570Y143240D01*
X260720Y143760D01*
X260910Y144320D01*
X261220Y145100D01*
X259680D01*
G01X263550Y141900D02*
X263470Y141950D01*
Y142050D01*
X263550Y142100D01*
X263630Y142050D01*
Y141950D01*
X263550Y141900D01*
G01X266650Y142000D02*
Y145100D01*
X266190Y144480D01*
G01Y142000D02*
X267110D01*
G01X269020Y144580D02*
X269250Y144890D01*
X269520Y145050D01*
X269830Y145100D01*
X270210Y145000D01*
X270480Y144740D01*
X270560Y144430D01*
X270520Y144120D01*
X270360Y143860D01*
X269600Y143340D01*
X269250Y142980D01*
X269020Y142460D01*
X268940Y142000D01*
X270560D01*
G01X272850Y141900D02*
X272770Y141950D01*
Y142050D01*
X272850Y142100D01*
X272930Y142050D01*
Y141950D01*
X272850Y141900D01*
G01X278280Y142000D02*
Y145100D01*
X279240D01*
X279550Y144940D01*
X279740Y144740D01*
X279820Y144320D01*
X279740Y143910D01*
X279510Y143650D01*
X279240Y143500D01*
X278280D01*
G01X279240D02*
X279820Y142000D01*
G01X281580Y143390D02*
X282800D01*
X282690Y143760D01*
X282500Y143960D01*
X282230Y144070D01*
X281960Y144010D01*
X281730Y143860D01*
X281580Y143500D01*
X281500Y143190D01*
Y142880D01*
X281580Y142570D01*
X281770Y142260D01*
X282000Y142050D01*
X282270Y142000D01*
X282530Y142100D01*
X282800Y142410D01*
G01X284560Y144070D02*
X285250Y142000D01*
X285940Y144070D01*
G01X288350Y141900D02*
X288270Y141950D01*
Y142050D01*
X288350Y142100D01*
X288430Y142050D01*
Y141950D01*
X288350Y141900D01*
G01X290490Y142000D02*
X291450Y145100D01*
X292410Y142000D01*
G01X292060Y143080D02*
X290840D01*
G01X301310Y7600D02*
Y5380D01*
X301460Y4910D01*
X301770Y4600D01*
X302150Y4500D01*
X302530Y4600D01*
X302840Y4910D01*
X302990Y5380D01*
Y7600D01*
G01X304410Y5120D02*
X304640Y4760D01*
X304940Y4550D01*
X305290Y4500D01*
X305600Y4550D01*
X305900Y4810D01*
X306090Y5120D01*
X306130Y5430D01*
X306060Y5790D01*
X305790Y6050D01*
X305520Y6150D01*
X305170D01*
G01X305520D02*
X305750Y6310D01*
X305940Y6570D01*
X306020Y6880D01*
X305940Y7190D01*
X305750Y7440D01*
X305400Y7600D01*
X305060Y7550D01*
X304710Y7340D01*
G01X309280Y14530D02*
Y17630D01*
X310240D01*
X310550Y17470D01*
X310740Y17270D01*
X310820Y16850D01*
X310740Y16440D01*
X310510Y16180D01*
X310240Y16030D01*
X309280D01*
G01X310240D02*
X310820Y14530D01*
G01X312500Y14890D02*
X312770Y14630D01*
X313070Y14530D01*
X313380Y14630D01*
X313650Y14940D01*
X313840Y15410D01*
X313920Y15870D01*
Y16440D01*
X313840Y16910D01*
X313650Y17320D01*
X313420Y17530D01*
X313150Y17630D01*
X312840Y17530D01*
X312610Y17320D01*
X312460Y17010D01*
X312380Y16600D01*
X312460Y16240D01*
X312650Y15870D01*
X312880Y15670D01*
X313150Y15610D01*
X313460Y15720D01*
X313690Y15980D01*
X313920Y16440D01*
G01X309280Y24530D02*
Y27630D01*
X310240D01*
X310550Y27470D01*
X310740Y27270D01*
X310820Y26850D01*
X310740Y26440D01*
X310510Y26180D01*
X310240Y26030D01*
X309280D01*
G01X310240D02*
X310820Y24530D01*
G01X312310Y24990D02*
X312540Y24740D01*
X312800Y24580D01*
X313150Y24530D01*
X313500Y24630D01*
X313760Y24840D01*
X313960Y25200D01*
X313990Y25610D01*
X313920Y26030D01*
X313720Y26290D01*
X313460Y26490D01*
X313190Y26540D01*
X312920Y26490D01*
X312580Y26290D01*
X312690Y27630D01*
X313720D01*
G01X328790Y47500D02*
Y50000D01*
X329810D01*
G01X329430Y48790D02*
X328790D01*
G01X330970Y50000D02*
Y47500D01*
X332030D01*
G01X333030D02*
X333700Y50000D01*
X334370Y47500D01*
G01X334130Y48370D02*
X333270D01*
G01X335340Y47830D02*
X335550Y47620D01*
X335790Y47500D01*
X336010D01*
X336220Y47620D01*
X336380Y47830D01*
X336460Y48130D01*
X336410Y48420D01*
X336270Y48670D01*
X336030Y48830D01*
X335710Y48920D01*
X335530Y49080D01*
X335450Y49370D01*
X335500Y49670D01*
X335630Y49870D01*
X335820Y50000D01*
X336010D01*
X336190Y49920D01*
X336350Y49710D01*
G01X337540Y47500D02*
Y50000D01*
G01X338660D02*
Y47500D01*
G01Y48750D02*
X337540D01*
G01X320740Y47830D02*
X320950Y47620D01*
X321190Y47500D01*
X321410D01*
X321620Y47620D01*
X321780Y47830D01*
X321860Y48130D01*
X321810Y48420D01*
X321670Y48670D01*
X321430Y48830D01*
X321110Y48920D01*
X320930Y49080D01*
X320850Y49370D01*
X320900Y49670D01*
X321030Y49870D01*
X321220Y50000D01*
X321410D01*
X321590Y49920D01*
X321750Y49710D01*
G01X322700Y50000D02*
X323070Y47500D01*
X323500Y50000D01*
X323930Y47500D01*
X324300Y50000D01*
G01X325700Y47500D02*
Y50000D01*
X325380Y49500D01*
G01Y47500D02*
X326020D01*
G01X328770Y66000D02*
Y68500D01*
X329430D01*
X329650Y68370D01*
X329780Y68210D01*
X329830Y67870D01*
X329780Y67540D01*
X329620Y67330D01*
X329430Y67210D01*
X328770D01*
G01X329430D02*
X329830Y66000D01*
G01X332030D02*
X330970D01*
Y68500D01*
X332030D01*
G01X331610Y67290D02*
X330970D01*
G01X333140Y66330D02*
X333350Y66120D01*
X333590Y66000D01*
X333810D01*
X334020Y66120D01*
X334180Y66330D01*
X334260Y66630D01*
X334210Y66920D01*
X334070Y67170D01*
X333830Y67330D01*
X333510Y67420D01*
X333330Y67580D01*
X333250Y67870D01*
X333300Y68170D01*
X333430Y68370D01*
X333620Y68500D01*
X333810D01*
X333990Y68420D01*
X334150Y68210D01*
G01X336430Y66000D02*
X335370D01*
Y68500D01*
X336430D01*
G01X336010Y67290D02*
X335370D01*
G01X338100Y68500D02*
Y66000D01*
G01X337490Y68500D02*
X338710D01*
G01X353800Y117000D02*
Y77000D01*
X330200D01*
Y117000D01*
G01X309280Y80530D02*
Y83630D01*
X310240D01*
X310550Y83470D01*
X310740Y83270D01*
X310820Y82850D01*
X310740Y82440D01*
X310510Y82180D01*
X310240Y82030D01*
X309280D01*
G01X310240D02*
X310820Y80530D01*
G01X312420Y81820D02*
X312690Y82180D01*
X312920Y82390D01*
X313230Y82490D01*
X313500Y82390D01*
X313690Y82180D01*
X313840Y81870D01*
X313880Y81510D01*
X313840Y81200D01*
X313690Y80890D01*
X313460Y80630D01*
X313190Y80530D01*
X312880Y80630D01*
X312610Y80940D01*
X312460Y81410D01*
X312420Y81920D01*
X312500Y82600D01*
X312610Y82960D01*
X312800Y83320D01*
X313070Y83580D01*
X313340Y83630D01*
X313610Y83530D01*
X313800Y83270D01*
G01X309280Y88530D02*
Y91630D01*
X310240D01*
X310550Y91470D01*
X310740Y91270D01*
X310820Y90850D01*
X310740Y90440D01*
X310510Y90180D01*
X310240Y90030D01*
X309280D01*
G01X310240D02*
X310820Y88530D01*
G01X313070D02*
X313150Y89200D01*
X313270Y89770D01*
X313420Y90290D01*
X313610Y90850D01*
X313920Y91630D01*
X312380D01*
G01X309280Y72530D02*
Y75630D01*
X310240D01*
X310550Y75470D01*
X310740Y75270D01*
X310820Y74850D01*
X310740Y74440D01*
X310510Y74180D01*
X310240Y74030D01*
X309280D01*
G01X310240D02*
X310820Y72530D01*
G01X313150D02*
X313420Y72580D01*
X313720Y72740D01*
X313920Y72990D01*
X313990Y73360D01*
X313920Y73720D01*
X313690Y74030D01*
X313340Y74180D01*
X312960D01*
X312730Y74290D01*
X312540Y74540D01*
X312460Y74910D01*
X312580Y75270D01*
X312840Y75530D01*
X313150Y75630D01*
X313460Y75530D01*
X313720Y75270D01*
X313840Y74910D01*
X313760Y74540D01*
X313570Y74290D01*
X313340Y74180D01*
X312960D01*
X312610Y74030D01*
X312380Y73720D01*
X312310Y73360D01*
X312380Y72990D01*
X312580Y72740D01*
X312880Y72580D01*
X313150Y72530D01*
G01X320240Y66330D02*
X320450Y66120D01*
X320690Y66000D01*
X320910D01*
X321120Y66120D01*
X321280Y66330D01*
X321360Y66630D01*
X321310Y66920D01*
X321170Y67170D01*
X320930Y67330D01*
X320610Y67420D01*
X320430Y67580D01*
X320350Y67870D01*
X320400Y68170D01*
X320530Y68370D01*
X320720Y68500D01*
X320910D01*
X321090Y68420D01*
X321250Y68210D01*
G01X322200Y68500D02*
X322570Y66000D01*
X323000Y68500D01*
X323430Y66000D01*
X323800Y68500D01*
G01X324690Y68080D02*
X324850Y68330D01*
X325040Y68460D01*
X325250Y68500D01*
X325520Y68420D01*
X325710Y68210D01*
X325760Y67960D01*
X325730Y67710D01*
X325630Y67500D01*
X325090Y67080D01*
X324850Y66790D01*
X324690Y66370D01*
X324640Y66000D01*
X325760D01*
G01X330380Y118620D02*
X330580Y118310D01*
X330800Y118100D01*
X331070Y118000D01*
X331380Y118100D01*
X331610Y118310D01*
X331840Y118620D01*
X331920Y119030D01*
Y121100D01*
G01X333520Y120580D02*
X333750Y120890D01*
X334020Y121050D01*
X334330Y121100D01*
X334710Y121000D01*
X334980Y120740D01*
X335060Y120430D01*
X335020Y120120D01*
X334860Y119860D01*
X334100Y119340D01*
X333750Y118980D01*
X333520Y118460D01*
X333440Y118000D01*
X335060D01*
G01X353810Y117000D02*
X330190D01*
G01X309080Y111970D02*
Y115070D01*
X310040D01*
X310350Y114910D01*
X310540Y114710D01*
X310620Y114290D01*
X310540Y113880D01*
X310310Y113620D01*
X310040Y113470D01*
X309080D01*
G01X310040D02*
X310620Y111970D01*
G01X312220Y114550D02*
X312450Y114860D01*
X312720Y115020D01*
X313030Y115070D01*
X313410Y114970D01*
X313680Y114710D01*
X313760Y114400D01*
X313720Y114090D01*
X313560Y113830D01*
X312800Y113310D01*
X312450Y112950D01*
X312220Y112430D01*
X312140Y111970D01*
X313760D01*
G01X309080Y95970D02*
Y99070D01*
X310040D01*
X310350Y98910D01*
X310540Y98710D01*
X310620Y98290D01*
X310540Y97880D01*
X310310Y97620D01*
X310040Y97470D01*
X309080D01*
G01X310040D02*
X310620Y95970D01*
G01X313410D02*
Y99070D01*
X311990Y96850D01*
X313910D01*
G01X309080Y103970D02*
Y107070D01*
X310040D01*
X310350Y106910D01*
X310540Y106710D01*
X310620Y106290D01*
X310540Y105880D01*
X310310Y105620D01*
X310040Y105470D01*
X309080D01*
G01X310040D02*
X310620Y103970D01*
G01X312110Y104590D02*
X312340Y104230D01*
X312640Y104020D01*
X312990Y103970D01*
X313300Y104020D01*
X313600Y104280D01*
X313790Y104590D01*
X313830Y104900D01*
X313760Y105260D01*
X313490Y105520D01*
X313220Y105620D01*
X312870D01*
G01X313220D02*
X313450Y105780D01*
X313640Y106040D01*
X313720Y106350D01*
X313640Y106660D01*
X313450Y106910D01*
X313100Y107070D01*
X312760Y107020D01*
X312410Y106810D01*
G01X327650Y127600D02*
Y124500D01*
G01X326770Y127600D02*
X328530D01*
G01X329940Y124500D02*
X331560Y127600D01*
G01X329940D02*
X331560Y124500D01*
G01X333010D02*
Y127600D01*
X333770D01*
X334080Y127440D01*
X334310Y127240D01*
X334500Y126930D01*
X334660Y126570D01*
X334690Y126050D01*
X334660Y125530D01*
X334500Y125170D01*
X334310Y124860D01*
X334080Y124650D01*
X333770Y124500D01*
X333010D01*
G01X327380Y132500D02*
Y135600D01*
X328340D01*
X328650Y135440D01*
X328840Y135240D01*
X328920Y134820D01*
X328840Y134410D01*
X328610Y134150D01*
X328340Y134000D01*
X327380D01*
G01X328340D02*
X328920Y132500D01*
G01X330440D02*
X332060Y135600D01*
G01X330440D02*
X332060Y132500D01*
G01X333510D02*
Y135600D01*
X334270D01*
X334580Y135440D01*
X334810Y135240D01*
X335000Y134930D01*
X335160Y134570D01*
X335190Y134050D01*
X335160Y133530D01*
X335000Y133170D01*
X334810Y132860D01*
X334580Y132650D01*
X334270Y132500D01*
X333510D01*
G01X328380Y142070D02*
X328920Y142610D01*
X329580Y141960D01*
X329640Y141570D01*
X329590Y141240D01*
X329390Y140890D01*
X329050Y140700D01*
X328710Y140650D01*
X328330Y140710D01*
X327970Y140860D01*
X327620Y141090D01*
X327370Y141350D01*
X327200Y141620D01*
X327050Y141990D01*
X327000Y142370D01*
X327010Y142680D01*
X327120Y143010D01*
X327310Y143190D01*
X327600Y143340D01*
X327910Y143360D01*
G01X330960Y142460D02*
X328770Y144650D01*
X329420Y145300D01*
X329750Y145410D01*
X330160Y145320D01*
X330510Y145080D01*
X330750Y144730D01*
X330830Y144380D01*
X330700Y144020D01*
X330050Y143370D01*
G01X331180Y147060D02*
X331830Y147710D01*
G01X331500Y147390D02*
X333690Y145190D01*
G01X333370Y144870D02*
X334020Y145520D01*
G01X335880Y147380D02*
X335630Y147200D01*
X335290Y147160D01*
X334910Y147220D01*
X334550Y147360D01*
X334200Y147600D01*
X333910Y147890D01*
X333670Y148240D01*
X333520Y148600D01*
X333470Y148990D01*
X333510Y149320D01*
X333690Y149580D01*
X333940Y149760D01*
X334280Y149800D01*
X334660Y149740D01*
X335030Y149600D01*
X335370Y149360D01*
X335670Y149060D01*
X335900Y148720D01*
X336050Y148350D01*
X336110Y147970D01*
X336060Y147640D01*
X335880Y147380D01*
G01X338070Y149570D02*
X335880Y151770D01*
X335990Y151000D01*
G01X337750Y149250D02*
X338400Y149900D01*
G01X338830Y152160D02*
X338770Y152610D01*
X338790Y152920D01*
X338930Y153210D01*
X339190Y153320D01*
X339470Y153310D01*
X339800Y153200D01*
X340080Y152970D01*
X340280Y152730D01*
X340390Y152400D01*
X340410Y152050D01*
X340290Y151790D01*
X340000Y151650D01*
X339590Y151680D01*
X339150Y151900D01*
X338760Y152230D01*
X338340Y152760D01*
X338170Y153100D01*
X338050Y153490D01*
Y153860D01*
X338210Y154090D01*
X338470Y154210D01*
X338790Y154160D01*
G01X308810Y125000D02*
Y128100D01*
X309570D01*
X309880Y127940D01*
X310110Y127740D01*
X310300Y127430D01*
X310460Y127070D01*
X310490Y126550D01*
X310460Y126030D01*
X310300Y125670D01*
X310110Y125360D01*
X309880Y125150D01*
X309570Y125000D01*
X308810D01*
G01X312750D02*
Y128100D01*
X312290Y127480D01*
G01Y125000D02*
X313210D01*
G01X325510Y123640D02*
X314490D01*
G01D02*
Y128360D01*
G01D02*
X325510D01*
G01D02*
Y123640D01*
G01X321180Y126000D02*
X318820D01*
G01X321180Y124420D02*
Y127580D01*
G01D02*
X319610Y126000D01*
G01D02*
X321180Y124420D01*
G01X319610D02*
Y127580D01*
G01X308810Y133000D02*
Y136100D01*
X309570D01*
X309880Y135940D01*
X310110Y135740D01*
X310300Y135430D01*
X310460Y135070D01*
X310490Y134550D01*
X310460Y134030D01*
X310300Y133670D01*
X310110Y133360D01*
X309880Y133150D01*
X309570Y133000D01*
X308810D01*
G01X312020Y135580D02*
X312250Y135890D01*
X312520Y136050D01*
X312830Y136100D01*
X313210Y136000D01*
X313480Y135740D01*
X313560Y135430D01*
X313520Y135120D01*
X313360Y134860D01*
X312600Y134340D01*
X312250Y133980D01*
X312020Y133460D01*
X311940Y133000D01*
X313560D01*
G01X325510Y131640D02*
X314490D01*
G01D02*
Y136360D01*
G01D02*
X325510D01*
G01D02*
Y131640D01*
G01X321180Y134000D02*
X318820D01*
G01X321180Y132420D02*
Y135580D01*
G01D02*
X319610Y134000D01*
G01D02*
X321180Y132420D01*
G01X319610D02*
Y135580D01*
G01X308810Y141000D02*
Y144100D01*
X309570D01*
X309880Y143940D01*
X310110Y143740D01*
X310300Y143430D01*
X310460Y143070D01*
X310490Y142550D01*
X310460Y142030D01*
X310300Y141670D01*
X310110Y141360D01*
X309880Y141150D01*
X309570Y141000D01*
X308810D01*
G01X311910Y141620D02*
X312140Y141260D01*
X312440Y141050D01*
X312790Y141000D01*
X313100Y141050D01*
X313400Y141310D01*
X313590Y141620D01*
X313630Y141930D01*
X313560Y142290D01*
X313290Y142550D01*
X313020Y142650D01*
X312670D01*
G01X313020D02*
X313250Y142810D01*
X313440Y143070D01*
X313520Y143380D01*
X313440Y143690D01*
X313250Y143940D01*
X312900Y144100D01*
X312560Y144050D01*
X312210Y143840D01*
G01X325510Y139640D02*
X314490D01*
G01D02*
Y144360D01*
G01D02*
X325510D01*
G01D02*
Y139640D01*
G01X321180Y142000D02*
X318820D01*
G01X321180Y140420D02*
Y143580D01*
G01D02*
X319610Y142000D01*
G01D02*
X321180Y140420D01*
G01X319610D02*
Y143580D01*
G01X346710Y91000D02*
X346870Y90710D01*
X347090Y90540D01*
X347330Y90500D01*
X347540Y90540D01*
X347750Y90750D01*
X347890Y91000D01*
X347910Y91250D01*
X347860Y91540D01*
X347670Y91750D01*
X347490Y91830D01*
X347250D01*
G01X347490D02*
X347650Y91960D01*
X347780Y92170D01*
X347830Y92420D01*
X347780Y92670D01*
X347650Y92870D01*
X347410Y93000D01*
X347170Y92960D01*
X346930Y92790D01*
G01X348830Y93000D02*
X349500Y90500D01*
X350170Y93000D01*
G01X351110Y91000D02*
X351270Y90710D01*
X351490Y90540D01*
X351730Y90500D01*
X351940Y90540D01*
X352150Y90750D01*
X352290Y91000D01*
X352310Y91250D01*
X352260Y91540D01*
X352070Y91750D01*
X351890Y91830D01*
X351650D01*
G01X351890D02*
X352050Y91960D01*
X352180Y92170D01*
X352230Y92420D01*
X352180Y92670D01*
X352050Y92870D01*
X351810Y93000D01*
X351570Y92960D01*
X351330Y92790D01*
G01X347460Y82250D02*
X347990D01*
Y81500D01*
X347830Y81250D01*
X347650Y81080D01*
X347380Y81000D01*
X347110Y81080D01*
X346930Y81250D01*
X346770Y81500D01*
X346660Y81790D01*
X346610Y82120D01*
Y82420D01*
X346660Y82670D01*
X346770Y82960D01*
X346930Y83210D01*
X347090Y83370D01*
X347300Y83500D01*
X347490D01*
X347700Y83420D01*
X347860Y83250D01*
G01X348890Y81000D02*
Y83500D01*
X350110Y81000D01*
Y83500D01*
G01X351110Y81000D02*
Y83500D01*
X351650D01*
X351860Y83370D01*
X352020Y83210D01*
X352150Y82960D01*
X352260Y82670D01*
X352290Y82250D01*
X352260Y81830D01*
X352150Y81540D01*
X352020Y81290D01*
X351860Y81120D01*
X351650Y81000D01*
X351110D01*
G01X347240Y111330D02*
X347450Y111120D01*
X347690Y111000D01*
X347910D01*
X348120Y111120D01*
X348280Y111330D01*
X348360Y111630D01*
X348310Y111920D01*
X348170Y112170D01*
X347930Y112330D01*
X347610Y112420D01*
X347430Y112580D01*
X347350Y112870D01*
X347400Y113170D01*
X347530Y113370D01*
X347720Y113500D01*
X347910D01*
X348090Y113420D01*
X348250Y113210D01*
G01X349410Y111000D02*
Y113500D01*
X349950D01*
X350160Y113370D01*
X350320Y113210D01*
X350450Y112960D01*
X350560Y112670D01*
X350590Y112250D01*
X350560Y111830D01*
X350450Y111540D01*
X350320Y111290D01*
X350160Y111120D01*
X349950Y111000D01*
X349410D01*
G01X351530D02*
X352200Y113500D01*
X352870Y111000D01*
G01X352630Y111870D02*
X351770D01*
G01X347240Y101330D02*
X347450Y101120D01*
X347690Y101000D01*
X347910D01*
X348120Y101120D01*
X348280Y101330D01*
X348360Y101630D01*
X348310Y101920D01*
X348170Y102170D01*
X347930Y102330D01*
X347610Y102420D01*
X347430Y102580D01*
X347350Y102870D01*
X347400Y103170D01*
X347530Y103370D01*
X347720Y103500D01*
X347910D01*
X348090Y103420D01*
X348250Y103210D01*
G01X350590Y103290D02*
X350430Y103420D01*
X350240Y103500D01*
X350030D01*
X349790Y103370D01*
X349600Y103170D01*
X349470Y102920D01*
X349360Y102500D01*
X349330Y102120D01*
X349390Y101750D01*
X349470Y101500D01*
X349630Y101250D01*
X349810Y101080D01*
X350000Y101000D01*
X350190D01*
X350370Y101080D01*
X350530Y101210D01*
X350670Y101370D01*
G01X351670Y103500D02*
Y101000D01*
X352730D01*
G54D11*
G01X229100Y53700D02*
X218900D01*
Y58300D01*
X229100D01*
Y53700D01*
G01X224000D02*
Y58300D01*
G01X216900Y86300D02*
X227100D01*
Y81700D01*
X216900D01*
Y86300D01*
G01Y98300D02*
X227100D01*
Y93700D01*
X216900D01*
Y98300D01*
G01Y112300D02*
X227100D01*
Y107700D01*
X216900D01*
Y112300D01*
G01X325100Y13700D02*
X314900D01*
Y18300D01*
X325100D01*
Y13700D01*
G01Y23700D02*
X314900D01*
Y28300D01*
X325100D01*
Y23700D01*
G01Y79700D02*
X314900D01*
Y84300D01*
X325100D01*
Y79700D01*
G01Y87700D02*
X314900D01*
Y92300D01*
X325100D01*
Y87700D01*
G01Y71700D02*
X314900D01*
Y76300D01*
X325100D01*
Y71700D01*
G01X314900Y116300D02*
X325100D01*
Y111700D01*
X314900D01*
Y116300D01*
G01Y100300D02*
X325100D01*
Y95700D01*
X314900D01*
Y100300D01*
G01Y108300D02*
X325100D01*
Y103700D01*
X314900D01*
Y108300D01*
G54D12*
G01X251170Y148000D02*
X248630D01*
Y153000D01*
X251170D01*
G01X250150Y150580D02*
X248630D01*
G01X253670Y148670D02*
X254180Y148250D01*
X254750Y148000D01*
X255250D01*
X255760Y148250D01*
X256140Y148670D01*
X256330Y149250D01*
X256200Y149830D01*
X255890Y150330D01*
X255320Y150670D01*
X254560Y150830D01*
X254110Y151170D01*
X253920Y151750D01*
X254050Y152330D01*
X254370Y152750D01*
X254810Y153000D01*
X255250D01*
X255700Y152830D01*
X256080Y152420D01*
G01X258830Y148000D02*
Y153000D01*
X260350D01*
X260860Y152750D01*
X261240Y152170D01*
X261370Y151500D01*
X261240Y150830D01*
X260920Y150330D01*
X260350Y150080D01*
X258830D01*
G01X265200Y148000D02*
X265640Y148080D01*
X266150Y148330D01*
X266470Y148750D01*
X266590Y149330D01*
X266470Y149920D01*
X266090Y150420D01*
X265520Y150670D01*
X264880D01*
X264500Y150830D01*
X264190Y151250D01*
X264060Y151830D01*
X264250Y152420D01*
X264690Y152830D01*
X265200Y153000D01*
X265710Y152830D01*
X266150Y152420D01*
X266340Y151830D01*
X266210Y151250D01*
X265900Y150830D01*
X265520Y150670D01*
X264880D01*
X264310Y150420D01*
X263930Y149920D01*
X263810Y149330D01*
X263930Y148750D01*
X264250Y148330D01*
X264760Y148080D01*
X265200Y148000D01*
G01X269100Y152170D02*
X269480Y152670D01*
X269920Y152920D01*
X270430Y153000D01*
X271060Y152830D01*
X271500Y152420D01*
X271630Y151920D01*
X271570Y151420D01*
X271310Y151000D01*
X270050Y150170D01*
X269480Y149580D01*
X269100Y148750D01*
X268970Y148000D01*
X271630D01*
G01X274200Y150080D02*
X274640Y150670D01*
X275020Y151000D01*
X275530Y151170D01*
X275970Y151000D01*
X276290Y150670D01*
X276540Y150170D01*
X276600Y149580D01*
X276540Y149080D01*
X276290Y148580D01*
X275910Y148170D01*
X275460Y148000D01*
X274960Y148170D01*
X274510Y148670D01*
X274260Y149420D01*
X274200Y150250D01*
X274320Y151330D01*
X274510Y151920D01*
X274830Y152500D01*
X275270Y152920D01*
X275720Y153000D01*
X276160Y152830D01*
X276480Y152420D01*
G01X279300Y150080D02*
X279740Y150670D01*
X280120Y151000D01*
X280630Y151170D01*
X281070Y151000D01*
X281390Y150670D01*
X281640Y150170D01*
X281700Y149580D01*
X281640Y149080D01*
X281390Y148580D01*
X281010Y148170D01*
X280560Y148000D01*
X280060Y148170D01*
X279610Y148670D01*
X279360Y149420D01*
X279300Y150250D01*
X279420Y151330D01*
X279610Y151920D01*
X279930Y152500D01*
X280370Y152920D01*
X280820Y153000D01*
X281260Y152830D01*
X281580Y152420D01*
G01X284270Y148670D02*
X284780Y148250D01*
X285350Y148000D01*
X285850D01*
X286360Y148250D01*
X286740Y148670D01*
X286930Y149250D01*
X286800Y149830D01*
X286490Y150330D01*
X285920Y150670D01*
X285160Y150830D01*
X284710Y151170D01*
X284520Y151750D01*
X284650Y152330D01*
X284970Y152750D01*
X285410Y153000D01*
X285850D01*
X286300Y152830D01*
X286680Y152420D01*
G01X288800Y153000D02*
X289690Y148000D01*
X290700Y153000D01*
X291710Y148000D01*
X292600Y153000D01*
G54D13*
G01X246000Y5000D02*
X240400Y10600D01*
G01X240300Y4900D02*
X299700D01*
Y35100D01*
X240300D01*
Y4900D01*
G01X320500Y43000D02*
Y47000D01*
X347500D01*
Y43000D01*
G01X320500Y37000D02*
Y33000D01*
X347500D01*
Y37000D01*
G01X320500Y55000D02*
Y51000D01*
X347500D01*
Y55000D01*
G01X320500Y61000D02*
Y65000D01*
X347500D01*
Y61000D01*
G54D14*
G01X182610Y60520D02*
Y75480D01*
X188520D01*
G01X209390Y60520D02*
Y75480D01*
X203480D01*
G54D15*
G01X248660Y45000D02*
X240000D01*
Y48940D01*
G01Y110750D02*
Y139490D01*
X302990D01*
Y110350D01*
G01X294720Y45000D02*
X302990D01*
Y48940D01*
G54D16*
G01X216500Y46000D02*
X210000D01*
Y34000D01*
X216500D01*
G01X197500D02*
X204000D01*
Y46000D01*
X197500D01*
G01X190500Y34000D02*
X184000D01*
Y46000D01*
X190500D01*
G01X223500D02*
X230000D01*
Y34000D01*
X223500D01*
G54D17*
G01X2200Y55790D02*
Y34210D01*
X27800D01*
Y55790D01*
X2200D01*
G01Y120790D02*
Y99210D01*
X27800D01*
Y120790D01*
X2200D01*
G01X39760Y85940D02*
X176770D01*
Y4060D01*
X39760D01*
Y85940D01*
G01X40350Y90000D02*
Y140000D01*
X209650D01*
Y90000D01*
X40350D01*
M02*
