G04 ================== begin FILE IDENTIFICATION RECORD ==================*
G04 Layout Name:  ESP8266SW.brd*
G04 Film Name:    SOLDERMASK_TOP*
G04 File Format:  Gerber RS274X*
G04 File Origin:  Cadence Allegro 16.6-P004*
G04 Origin Date:  Tue Dec 05 23:45:08 2017*
G04 *
G04 Layer:  PIN/SOLDERMASK_TOP*
G04 Layer:  PACKAGE GEOMETRY/SOLDERMASK_TOP*
G04 Layer:  PACKAGE GEOMETRY/PASTEMASK_TOP*
G04 Layer:  BOARD GEOMETRY/SOLDERMASK_TOP*
G04 *
G04 Offset:    (0.0 0.0)*
G04 Mirror:    No*
G04 Mode:      Positive*
G04 Rotation:  0*
G04 FullContactRelief:  No*
G04 UndefLineWidth:     1.0*
G04 ================== end FILE IDENTIFICATION RECORD ====================*
%FSLAX25Y25*MOIN*%
%IR0*IPPOS*OFA0.00000B0.00000*MIA0B0*SFA1.00000B1.00000*%
%ADD10C,.13*%
%ADD15R,.055X.105*%
%ADD12C,.108*%
%ADD16R,.1378X.0709*%
%ADD19R,.036X.032*%
%ADD18R,.075X.045*%
%ADD21R,.045X.075*%
%ADD11C,.096*%
%ADD13C,.0709*%
%ADD20R,.0295X.0433*%
%ADD22R,.0354X.0354*%
%ADD14R,.0472X.0709*%
%ADD17R,.0709X.0709*%
%LPD*%
G75*
G54D10*
X15000Y15000D03*
Y140000D03*
X345000Y15000D03*
Y140000D03*
G54D20*
X218460Y119000D03*
X225540D03*
X222000Y126090D03*
G54D11*
X15000Y40000D03*
Y50000D03*
Y105000D03*
Y115000D03*
G54D21*
X267560Y45000D03*
X259690D03*
X251810D03*
X291180D03*
X283310D03*
X275430D03*
G54D12*
X50000Y35160D03*
Y54840D03*
X64960Y115000D03*
X105120D03*
X155120D03*
X165750Y14690D03*
Y75310D03*
X185040Y115000D03*
G54D22*
X323250Y126000D03*
X316750D03*
X323250Y134000D03*
X316750D03*
X323250Y142000D03*
X316750D03*
G54D13*
X212000Y16000D03*
X202000D03*
X192000D03*
X265000Y20000D03*
X285000D03*
X275000D03*
X342000Y92000D03*
Y82000D03*
Y102000D03*
G54D14*
X205060Y55600D03*
X196000D03*
X186940D03*
G54D15*
X200300Y40000D03*
X187700D03*
X213700D03*
X226300D03*
G54D16*
X196000Y80400D03*
G54D17*
X222000Y16000D03*
X255000Y20000D03*
X342000Y112000D03*
G54D18*
X240000Y52090D03*
Y59960D03*
Y67830D03*
Y75710D03*
Y83580D03*
Y91460D03*
Y99330D03*
Y107200D03*
X302990Y59960D03*
Y52090D03*
Y91460D03*
Y83580D03*
Y75710D03*
Y67830D03*
Y107200D03*
Y99330D03*
X318800Y40000D03*
Y58000D03*
X349200Y40000D03*
Y58000D03*
G54D19*
X221100Y56000D03*
X226900D03*
X224900Y84000D03*
X219100D03*
X224900Y96000D03*
X219100D03*
X224900Y110000D03*
X219100D03*
X317100Y16000D03*
X322900D03*
X317100Y26000D03*
X322900D03*
X317100Y82000D03*
X322900D03*
X317100Y90000D03*
X322900D03*
X317100Y74000D03*
X322900D03*
Y114000D03*
X317100D03*
X322900Y98000D03*
X317100D03*
X322900Y106000D03*
X317100D03*
M02*
